<svg width="20" height="21" viewBox="0 0 20 21" fill="none" xmlns="http://www.w3.org/2000/svg">
<path d="M9.20768 12.9577L7.66602 14.4993C7.34102 14.8243 6.82435 14.8243 6.49102 14.5077C6.39935 14.416 6.30768 14.3327 6.21602 14.241C5.35768 13.3743 4.58268 12.466 3.89102 11.516C3.20768 10.566 2.65768 9.61602 2.25768 8.67435C1.86602 7.72435 1.66602 6.81602 1.66602 5.94935C1.66602 5.38268 1.76602 4.84102 1.96602 4.34102C2.16602 3.83268 2.48268 3.36602 2.92435 2.94935C3.45768 2.42435 4.04102 2.16602 4.65768 2.16602C4.89102 2.16602 5.12435 2.21602 5.33268 2.31602C5.54935 2.41602 5.74102 2.56602 5.89102 2.78268L7.82435 5.50768C7.97435 5.71602 8.08268 5.90768 8.15768 6.09102C8.23268 6.26602 8.27435 6.44102 8.27435 6.59935C8.27435 6.79935 8.21602 6.99935 8.09935 7.19102C7.99102 7.38268 7.83268 7.58268 7.63268 7.78268L6.99935 8.44102C6.90768 8.53268 6.86602 8.64102 6.86602 8.77435C6.86602 8.84102 6.87435 8.89935 6.89102 8.96602C6.91602 9.03268 6.94102 9.08268 6.95768 9.13268C7.10768 9.40768 7.36602 9.76602 7.73268 10.1993C8.10768 10.6327 8.50768 11.0743 8.94102 11.516C9.02435 11.5993 9.11602 11.6827 9.19935 11.766C9.53268 12.091 9.54102 12.6243 9.20768 12.9577Z" fill="#DBDBDB"/>
<path d="M18.3083 15.7742C18.3083 16.0076 18.2667 16.2492 18.1833 16.4826C18.1583 16.5492 18.1333 16.6159 18.1 16.6826C17.9583 16.9826 17.775 17.2659 17.5333 17.5326C17.125 17.9826 16.675 18.3076 16.1667 18.5159C16.1583 18.5159 16.15 18.5242 16.1417 18.5242C15.65 18.7242 15.1167 18.8326 14.5417 18.8326C13.6917 18.8326 12.7833 18.6326 11.825 18.2242C10.8667 17.8159 9.90833 17.2659 8.95833 16.5742C8.63333 16.3326 8.30833 16.0909 8 15.8326L10.725 13.1076C10.9583 13.2826 11.1667 13.4159 11.3417 13.5076C11.3833 13.5242 11.4333 13.5492 11.4917 13.5742C11.5583 13.5992 11.625 13.6076 11.7 13.6076C11.8417 13.6076 11.95 13.5576 12.0417 13.4659L12.675 12.8409C12.8833 12.6326 13.0833 12.4742 13.275 12.3742C13.4667 12.2576 13.6583 12.1992 13.8667 12.1992C14.025 12.1992 14.1917 12.2326 14.375 12.3076C14.5583 12.3826 14.75 12.4909 14.9583 12.6326L17.7167 14.5909C17.9333 14.7409 18.0833 14.9159 18.175 15.1242C18.2583 15.3326 18.3083 15.5409 18.3083 15.7742Z" fill="#DBDBDB"/>
</svg>
