<svg width="25" height="24" viewBox="0 0 25 24" fill="none" xmlns="http://www.w3.org/2000/svg">
<path d="M22.666 16.19C22.666 19.83 20.496 22 16.856 22H15.666C15.116 22 14.666 21.55 14.666 21V15.23C14.666 14.96 14.886 14.73 15.156 14.73L16.916 14.7C17.056 14.69 17.176 14.59 17.206 14.45L17.556 12.54C17.586 12.36 17.446 12.19 17.256 12.19L15.126 12.22C14.846 12.22 14.626 12 14.616 11.73L14.576 9.28C14.576 9.12 14.706 8.98001 14.876 8.98001L17.276 8.94C17.446 8.94 17.576 8.81001 17.576 8.64001L17.536 6.23999C17.536 6.06999 17.406 5.94 17.236 5.94L14.536 5.98001C12.876 6.01001 11.556 7.37 11.586 9.03L11.636 11.78C11.646 12.06 11.426 12.28 11.146 12.29L9.94601 12.31C9.77601 12.31 9.64603 12.44 9.64603 12.61L9.67603 14.51C9.67603 14.68 9.80601 14.81 9.97601 14.81L11.176 14.79C11.456 14.79 11.676 15.01 11.686 15.28L11.776 20.98C11.786 21.54 11.336 22 10.776 22H8.47601C4.83601 22 2.66602 19.83 2.66602 16.18V7.81C2.66602 4.17 4.83601 2 8.47601 2H16.856C20.496 2 22.666 4.17 22.666 7.81V16.19Z" fill="#C3C3C3"/>
</svg>
