<svg width="25" height="24" viewBox="0 0 25 24" fill="none" xmlns="http://www.w3.org/2000/svg">
<path d="M22.4052 11.07C22.3552 10.56 21.9252 10.18 21.4152 10.18H13.8652C13.3152 10.18 12.8652 10.63 12.8652 11.18V12.89C12.8652 13.44 13.3152 13.89 13.8652 13.89H18.3752C18.2652 14.81 17.6652 16.2 16.3352 17.13C15.4852 17.72 14.3552 18.13 12.8652 18.13C12.7952 18.13 12.7352 18.13 12.6652 18.12C10.1152 18.04 7.95524 16.33 7.17524 13.98C6.96524 13.35 6.84524 12.69 6.84524 12C6.84524 11.31 6.96524 10.64 7.16524 10.02C7.22524 9.83999 7.29524 9.66001 7.37524 9.48001C8.29524 7.41001 10.3052 5.95 12.6652 5.88C12.7252 5.87 12.7952 5.87 12.8652 5.87C14.2952 5.87 15.3652 6.33999 16.1152 6.85999C16.5052 7.12999 17.0252 7.06999 17.3652 6.73999L18.7552 5.38C19.1952 4.95 19.1552 4.21999 18.6552 3.85999C17.0652 2.68999 15.1252 2 12.8652 2C12.7952 2 12.7352 2.00001 12.6652 2.01001C8.83524 2.08001 5.54523 4.30001 3.93523 7.51001C3.25523 8.87001 2.86523 10.39 2.86523 12C2.86523 13.61 3.25523 15.13 3.93523 16.49H3.94524C5.55524 19.7 8.84524 21.92 12.6652 21.99C12.7352 22 12.7952 22 12.8652 22C15.5652 22 17.8352 21.11 19.4852 19.58C21.3752 17.83 22.4652 15.27 22.4652 12.22C22.4652 11.79 22.4452 11.42 22.4052 11.07Z" fill="#C3C3C3"/>
</svg>
