<svg width="20" height="21" viewBox="0 0 20 21" fill="none" xmlns="http://www.w3.org/2000/svg">
<path d="M14.166 3.41602H5.83268C3.33268 3.41602 1.66602 4.66602 1.66602 7.58268V13.416C1.66602 16.3327 3.33268 17.5827 5.83268 17.5827H14.166C16.666 17.5827 18.3327 16.3327 18.3327 13.416V7.58268C18.3327 4.66602 16.666 3.41602 14.166 3.41602ZM14.5577 8.49102L11.9493 10.5743C11.3993 11.016 10.6993 11.2327 9.99935 11.2327C9.29935 11.2327 8.59102 11.016 8.04935 10.5743L5.44102 8.49102C5.17435 8.27435 5.13268 7.87435 5.34102 7.60768C5.55768 7.34102 5.94935 7.29102 6.21602 7.50768L8.82435 9.59102C9.45768 10.0993 10.5327 10.0993 11.166 9.59102L13.7743 7.50768C14.041 7.29102 14.441 7.33268 14.6493 7.60768C14.866 7.87435 14.8243 8.27435 14.5577 8.49102Z" fill="#DBDBDB"/>
</svg>
