<svg width="25" height="24" viewBox="0 0 25 24" fill="none" xmlns="http://www.w3.org/2000/svg">
<path d="M22.6463 11.4104C22.3063 5.61044 17.0363 1.14045 10.9663 2.14045C6.7863 2.83045 3.43631 6.22043 2.78631 10.4004C2.40631 12.8204 2.90633 15.1104 3.99633 17.0004L3.10632 20.3104C2.90632 21.0604 3.5963 21.7404 4.3363 21.5304L7.59631 20.6304C9.07631 21.5004 10.8063 22.0004 12.6563 22.0004C18.2963 22.0004 22.9763 17.0304 22.6463 11.4104ZM17.5463 15.7204C17.4563 15.9004 17.3463 16.0704 17.2063 16.2304C16.9563 16.5004 16.6863 16.7004 16.3863 16.8204C16.0863 16.9504 15.7563 17.0104 15.4063 17.0104C14.8963 17.0104 14.3463 16.8905 13.7763 16.6405C13.1963 16.3905 12.6263 16.0604 12.0563 15.6504C11.4763 15.2304 10.9363 14.7604 10.4163 14.2504C9.89631 13.7304 9.43629 13.1804 9.01629 12.6104C8.60629 12.0404 8.27631 11.4704 8.03631 10.9004C7.79631 10.3304 7.67632 9.78045 7.67632 9.26045C7.67632 8.92044 7.73632 8.59044 7.85632 8.29044C7.97632 7.98044 8.16633 7.70045 8.43633 7.45045C8.75633 7.13045 9.10631 6.98045 9.47631 6.98045C9.61631 6.98045 9.75628 7.01044 9.88628 7.07044C10.0163 7.13044 10.1363 7.22044 10.2263 7.35044L11.3863 8.99043C11.4763 9.12043 11.5463 9.23043 11.5863 9.34043C11.6363 9.45043 11.6563 9.55043 11.6563 9.65043C11.6563 9.77043 11.6163 9.89045 11.5463 10.0104C11.4763 10.1304 11.3863 10.2504 11.2663 10.3704L10.8863 10.7704C10.8263 10.8304 10.8063 10.8904 10.8063 10.9704C10.8063 11.0104 10.8163 11.0504 10.8263 11.0904C10.8463 11.1304 10.8563 11.1604 10.8663 11.1904C10.9563 11.3604 11.1163 11.5704 11.3363 11.8304C11.5663 12.0904 11.8063 12.3604 12.0663 12.6204C12.3363 12.8904 12.5963 13.1304 12.8663 13.3604C13.1263 13.5804 13.3463 13.7304 13.5163 13.8204C13.5463 13.8304 13.5763 13.8504 13.6063 13.8604C13.6463 13.8804 13.6863 13.8804 13.7363 13.8804C13.8263 13.8804 13.8863 13.8504 13.9463 13.7904L14.3263 13.4104C14.4563 13.2804 14.5763 13.1904 14.6863 13.1304C14.8063 13.0604 14.9163 13.0204 15.0463 13.0204C15.1463 13.0204 15.2463 13.0404 15.3563 13.0904C15.4663 13.1404 15.5863 13.2004 15.7063 13.2904L17.3663 14.4704C17.4963 14.5604 17.5863 14.6704 17.6463 14.7904C17.6963 14.9204 17.7263 15.0404 17.7263 15.1804C17.6663 15.3504 17.6263 15.5404 17.5463 15.7204Z" fill="#C3C3C3"/>
</svg>
