<svg width="355" height="2311" viewBox="0 0 355 2311" fill="none" xmlns="http://www.w3.org/2000/svg">
<path d="M98.61 26.0679C122.763 17.9798 155.31 14.6088 181.191 15.1769C181.551 15.183 181.911 15.1895 182.269 15.1966C192.854 15.4175 203.658 16.0283 216.663 17.4383C218.25 17.6134 220.004 17.8166 221.735 18.0313C227.656 18.785 234.952 19.7612 240.911 21.1787C251.165 23.9593 262.641 28.7083 274.024 37.6615C334.65 94.9283 329.089 176.548 334.039 195.077C337.483 229.017 338.596 265.144 338.615 310.146C338.618 322.316 338.695 334.606 338.763 348.015C338.791 353.684 338.814 359.851 338.817 365.798C338.82 370.758 338.51 374.849 338.151 374.948C337.791 375.06 337.52 371.174 337.518 366.191C337.517 360.392 337.492 354.315 337.466 348.805C337.466 348.779 337.466 348.753 337.465 348.728C337.397 334.987 337.317 322.486 337.314 310.146C337.295 265.561 336.199 230.462 332.965 197.514C327.943 178.778 334.055 94.4627 271.787 37.587C261.071 29.5017 250.325 25.0905 240.585 22.4501C233.982 20.8931 225.455 19.799 218.993 19.0266C217.333 18.8328 215.747 18.6576 214.103 18.4879C214.064 18.4839 214.026 18.4799 213.987 18.4759C200.93 17.1508 190.658 16.6424 180.541 16.473C180.327 16.47 180.113 16.4673 179.899 16.4647C153.776 15.9783 122.071 19.5467 98.8534 27.3554C94.4018 28.8047 90.8514 29.9133 90.7624 29.5586C90.6718 29.2122 94.1188 27.5246 98.61 26.0679ZM320.21 1369.08C326.381 1382.68 331.835 1399.95 335.107 1418.28C337.409 1430.98 338.986 1443.69 339.788 1455.75C341.997 1486.04 338.367 1513.1 335.772 1525.61C333.345 1537.81 330.009 1551.31 324.236 1566.79C322.928 1570.28 321.445 1573.99 319.839 1577.7C314.524 1590.01 307.537 1603.25 298.337 1616.83C263.6 1666.36 229.748 1689.23 207.652 1706.75C203.005 1710.26 198.65 1713.49 194.485 1716.57C194.478 1716.57 194.471 1716.58 194.464 1716.58C181.788 1725.93 171.648 1733.3 162.687 1740.41C160.631 1742.04 158.648 1743.61 156.717 1745.14C138.175 1759.86 123.134 1772.07 105.463 1787.37C80.9218 1808.34 48.1071 1842.38 34.8886 1870.92C34.1417 1872.43 33.3983 1874 32.6642 1875.62C23.3217 1895.93 16.3328 1924.31 20.1559 1964.72C21.7487 1982.69 24.5527 1999.29 27.3675 2014.61C29.9141 2028.34 32.9134 2040.49 36.4914 2051.84C38.7402 2058.96 41.2627 2065.82 43.8751 2071.98C50.6715 2088.04 58.9192 2101.7 68.5156 2112.94C99.1332 2148.94 139.182 2155.98 166.698 2158.12C195.109 2159.99 216.016 2157.94 231.996 2157.3C256.593 2155.95 269.947 2156.48 279.085 2157.95C281.91 2158.39 284.114 2158.86 286.385 2159.44C295.91 2161.88 303.133 2166.36 307.013 2173.8C311.733 2182.6 314.128 2192.42 312.727 2203.18C312.125 2207.83 310.813 2212.64 308.771 2217.5C301.654 2233.74 291.401 2243.96 283.6 2251.48C280.104 2254.75 276.867 2257.5 273.721 2260.01C273.663 2260.05 273.606 2260.1 273.548 2260.15C273.111 2260.49 272.675 2260.84 272.24 2261.17C271.912 2261.43 271.585 2261.68 271.254 2261.94C271.127 2262.04 271.012 2262.13 270.926 2262.2C270.858 2262.25 270.805 2262.3 270.771 2262.32C270.764 2262.33 270.758 2262.33 270.752 2262.34C270.133 2262.83 269.588 2263.24 269.476 2263.32C269.281 2263.47 269.107 2263.6 269.018 2263.66C268.547 2264.01 267.941 2264.45 267.535 2264.74C266.491 2265.48 264.67 2266.77 261.779 2268.66C259.268 2270.31 256.832 2271.86 253.724 2273.72C253.529 2273.84 253.333 2273.95 253.137 2274.07C250.103 2275.86 246.501 2277.89 241.859 2280.22C237.656 2282.34 233.544 2283.83 232.838 2283.74C232.116 2283.65 235.039 2282.1 239.245 2280.05C243.61 2277.93 246.981 2276.09 250.037 2274.35C250.229 2274.24 250.422 2274.13 250.614 2274.02C253.777 2272.19 256.735 2270.38 259.86 2268.35C260.907 2267.67 261.977 2266.97 262.974 2266.29C264.764 2265.08 266.76 2263.67 269.113 2261.9C269.585 2261.55 270.069 2261.18 270.561 2260.8C273.71 2258.39 277.293 2255.47 281.138 2251.97C289.846 2243.82 301.303 2232.59 308.314 2215.11C310.07 2210.52 311.16 2205.99 311.596 2201.53C312.551 2191.88 310.342 2182.78 305.862 2174.44C301.748 2166.39 293.069 2161.91 281.927 2159.83C279.087 2159.28 276.153 2158.88 273.11 2158.57C263.865 2157.66 252.493 2157.5 229.713 2158.73C214.507 2159.34 194.213 2161.28 166.226 2159.39C139.152 2157.22 99.1501 2150.39 68.1289 2114.49C57.8162 2102.59 49.1108 2087.98 42.2071 2071.37C39.7315 2065.44 37.2375 2058.57 35.1586 2051.94C31.5756 2040.52 28.6133 2028.46 26.0875 2014.85C23.3758 2000.1 20.6871 1984.21 19.0449 1966.97C15.0791 1927.39 20.9879 1899.45 29.8392 1878.76C30.1409 1878.04 30.4488 1877.33 30.763 1876.61C31.1535 1875.72 31.5509 1874.84 31.9542 1873.97C45.3954 1842.79 80.7997 1806.42 107.86 1783.53C124.888 1768.94 139.308 1757.26 157.784 1742.63C159.119 1741.57 160.476 1740.5 161.871 1739.39C170.024 1732.93 179.236 1726.17 192.246 1716.6C196.567 1713.41 201.209 1709.98 206.36 1706.1C228.826 1688.31 263.147 1665.16 297.892 1615.16C306.69 1602.03 313.335 1589.45 318.604 1577.28C320.235 1573.51 321.762 1569.7 323.127 1566.04C328.885 1550.6 332.65 1535.54 335.189 1521.5C337.394 1509.96 340.652 1483.82 338.392 1454.47C337.557 1442.65 335.989 1430.44 333.827 1418.51C330.739 1401.32 325.985 1385.99 320.806 1373.81C319.921 1371.73 318.993 1369.63 317.999 1367.48C309.692 1349.35 298.047 1332.55 286.959 1320.67C242.078 1259.14 97.1983 1235.29 38.4359 1152.16C37.7521 1151.09 37.0834 1150.01 36.4302 1148.91C33.536 1144.04 31.1021 1139.22 28.9418 1134.12C-10.3412 1042.85 0.385376 967.399 4.46951 943.667C4.67391 942.466 4.86974 941.356 5.05096 940.355C5.21248 939.462 5.36143 938.657 5.49529 937.948C7.50687 927.352 9.70587 918.076 12.3813 908.495C12.5275 907.974 12.6747 907.453 12.8231 906.933C15.7358 896.765 19.1917 886.28 24.0395 874.162C42.2929 829.135 64.7251 796.107 85.4016 769.353C89.3596 764.277 93.0856 759.68 96.9756 755.029C96.987 755.015 96.9984 755.002 97.0098 754.988C113.849 734.9 130.044 718.31 146.012 703.266C157.468 692.457 168.425 683.002 176.969 675.352C190.661 662.961 201.112 653.131 209.991 644.578C214.758 639.983 218.844 635.974 222.846 631.993C231.532 623.347 238.923 615.721 246.226 607.942C260.234 592.999 272.473 578.707 283.469 564.054C284.401 562.812 285.444 561.405 286.403 560.091C298.116 544.006 308.347 527.503 316.691 508.777C318.605 504.477 320.313 500.916 320.687 500.954C321.054 500.991 319.941 504.653 318.026 508.975C309.916 527.255 299.976 543.533 288.315 559.679C287.347 561.016 286.356 562.367 285.344 563.727C274.389 578.438 261.94 593.054 247.703 608.267C240.642 615.802 233.619 623.073 225.189 631.499C221.001 635.678 216.945 639.674 211.917 644.531C202.713 653.416 191.986 663.517 177.841 676.319C169.314 683.953 158.458 693.322 147.164 703.968C131.443 718.766 115.419 735.126 98.6184 755.094C94.667 759.801 90.9487 764.376 86.9441 769.493C66.2152 796.226 43.6728 829.29 25.3497 874.389C20.7805 885.793 17.4666 895.658 14.5198 905.758C14.3574 906.316 14.1962 906.876 14.0364 907.436C11.3578 916.86 8.98047 926.628 6.85519 937.759C6.57236 939.245 6.21266 941.189 5.82326 943.458C1.72566 967.098 -9.1126 1042.42 30.1379 1133.61C32.3155 1138.75 34.7765 1143.61 37.7085 1148.51C37.8859 1148.81 38.0645 1149.11 38.2442 1149.4C82.5962 1210.37 127.306 1218.02 152.225 1232.75C173.46 1242.68 189.064 1250.25 201.591 1256.94C203.976 1258.21 206.224 1259.42 208.359 1260.6C217.583 1265.68 224.7 1269.93 231.705 1274.3C252.811 1287.66 266.969 1298.62 282.331 1313.73C295.377 1326.54 308.63 1344.93 317.208 1362.71C317.221 1362.73 317.234 1362.76 317.247 1362.79C318.281 1364.89 319.27 1366.99 320.21 1369.08ZM177.139 2296.68C172.223 2296.54 168.276 2296.08 168.37 2295.73C168.385 2295.36 172.476 2295.25 177.345 2295.39C179.844 2295.46 182.336 2295.51 184.598 2295.52C192.874 2295.53 201.558 2294.09 210.055 2291.88C214.618 2290.69 218.261 2289.78 218.354 2290.14C218.398 2290.49 214.838 2291.99 210.218 2293.18C201.695 2295.38 192.977 2296.83 184.598 2296.82C182.262 2296.81 179.686 2296.76 177.139 2296.68ZM316.956 1347.73C319.431 1352.02 321.353 1356.45 321.514 1357.59C321.658 1358.72 320.101 1356.17 317.76 1351.89C316.51 1349.61 314.425 1345.9 311.424 1341.17C300.846 1323.79 275.276 1292.46 232.579 1267.11C190.781 1240.44 132.947 1222.46 81.6557 1186.95C73.192 1180.8 66.0156 1174.64 59.7479 1168.23C49.3446 1157.53 41.0173 1146.11 34.6234 1131.7C25.0392 1109.24 14.0605 1082.32 7.92885 1037.92C-12.3858 896.089 77.114 765.993 181.37 680.233C233.907 632.081 287.817 583.18 320.065 519.64C352.618 455.387 344.326 380.997 345.18 310.146C345.122 286.407 344.777 262.669 343.679 238.987C337.863 156.834 333.394 45.8557 245.355 16.3598C244.377 16.0778 243.378 15.8049 242.356 15.5424C207.026 9.01965 154.85 6.49075 110.692 16.8691C65.0935 25.5594 37.3688 59.0224 34.2737 73.913C32.6472 78.3293 31.4634 82.1571 31.1188 82.0215C30.7875 81.895 31.4465 77.7963 33.1127 73.3046C36.2485 58.194 64.687 24.2034 110.583 15.5598C155.09 5.16744 207.183 7.72612 242.68 14.2829C243.462 14.4839 244.231 14.6909 244.988 14.9033C334.489 44.2094 338.976 155.664 344.922 237.656C346.068 261.779 346.434 285.967 346.511 310.146C345.684 380.899 354.22 455.438 321.58 520.339C289.238 584.408 235.324 633.504 182.844 681.868C78.7634 767.941 -9.51063 897.492 10.8326 1037.95C17.0117 1082.15 27.2678 1108.63 36.2986 1130.99C42.0397 1144.61 49.6272 1155.71 59.5336 1166.14C65.6999 1172.59 72.771 1178.78 81.2389 1185.03C131.239 1220.21 188.361 1238.05 230.022 1264.02C272.565 1288.71 298.918 1319.2 310.085 1336.65C313.399 1341.63 315.57 1345.32 316.956 1347.73ZM329.18 1573.17C310.8 1626.87 253.259 1685.25 196.713 1723.86C186.416 1731.39 176.332 1738.64 167.161 1745.97C152.082 1758.04 138.339 1769.38 126.674 1779.42C97.5034 1804.61 80.1154 1821.49 64.592 1839.83C64.4284 1840.02 64.2728 1840.21 64.1028 1840.42C49.3856 1858.91 33.3038 1879.07 26.8964 1917.93C22.6707 1944.41 26.2777 1978.15 33.0357 2013.57C36.3699 2031.13 40.638 2047.58 47.3984 2064.59C47.4138 2064.63 47.4293 2064.67 47.4448 2064.71C65.3834 2118.28 119.648 2149.04 159.508 2150.27C221.669 2158.8 283.895 2129.65 314.53 2169.63C327.532 2192.42 320.782 2216.88 311.199 2231.82C301.493 2247.38 290.015 2257.3 280.833 2264.56C254.158 2284.72 220.6 2301.72 184.598 2302.98C139.732 2304.49 90.3098 2289.61 50.9545 2307.71C51.4423 2308.42 51.7425 2308.69 52.0342 2309C52.3235 2309.3 52.5728 2309.53 52.7512 2309.7C53.1134 2310.05 53.1706 2310.16 52.9161 2310.06C52.6679 2309.96 52.1213 2309.66 51.4749 2309.15C51.3071 2309.01 51.1685 2308.9 50.9583 2308.69C50.7216 2308.45 50.4879 2308.19 50.2704 2307.87C50.0498 2307.55 49.8639 2307.25 49.6883 2306.74C49.4954 2306.18 49.4154 2305.48 49.5601 2304.78C50.3756 2301.94 52.6391 2301.37 53.9572 2300.75C54.8251 2300.43 55.5891 2300.2 56.4331 2299.99C56.857 2299.88 57.3221 2299.77 57.7836 2299.67C58.1848 2299.59 58.6063 2299.51 59.0484 2299.43C62.6444 2298.79 66.6047 2298.47 70.6006 2298.34C71.1803 2298.31 71.7694 2298.29 72.3677 2298.28C77.8627 2298.13 82.6793 2298.12 89.4524 2298.19C99.2345 2298.29 106.516 2298.51 113.154 2298.71C121.103 2298.79 150.96 2300.65 184.598 2301.53C224.399 2300.92 265.502 2275.79 282.752 2261.34C291.196 2254.37 301.869 2244.64 310.662 2229.63C319.385 2215.06 325.061 2192.16 312.627 2170.69C284.916 2133.4 222.483 2161.36 158.8 2153.09C119.067 2151.63 65.0262 2120.13 46.6601 2066.25C46.6046 2066.11 46.5491 2065.97 46.4938 2065.84C39.5657 2048.61 35.158 2031.75 31.7538 2013.8C25.0498 1978.61 21.3292 1944.71 25.6023 1917.79C32.3082 1877.09 49.7273 1856.15 64.8482 1837.49C65.0005 1837.31 65.1533 1837.13 65.3065 1836.95C80.9884 1818.8 97.6648 1802.77 125.787 1778.47C137.568 1768.33 151.324 1756.98 166.346 1744.96C175.829 1737.38 186.229 1729.92 196.808 1722.18C253.055 1683.66 309.325 1626.25 327.678 1573.44C329.485 1568.86 331.128 1564.99 331.543 1564.89C331.951 1564.8 330.97 1568.58 329.18 1573.17ZM336.281 1577.24C306.879 1656.53 234.658 1707.87 172.971 1753.19C116.39 1800.87 48.6174 1847.67 36.3628 1917.93C32.0588 1942.95 35.2711 1976.25 41.908 2011.93C45.1048 2029.27 49.2216 2045.4 55.6908 2061.83C55.9067 2062.38 56.124 2062.92 56.3425 2063.46C74.3115 2114.77 123.248 2141.36 161.078 2142.96C191.764 2146.06 220.725 2142.6 247.782 2141.53C273.336 2140.92 306.102 2139.36 321.29 2165.87C336.288 2191.7 328.219 2220.5 317.641 2236.6C306.925 2253.6 294.699 2263.99 284.971 2271.61C250.329 2296.38 238.043 2298.49 221.746 2304.53C221.288 2304.68 220.831 2304.82 220.373 2304.96C220.344 2304.97 220.314 2304.98 220.284 2304.99C219.714 2305.18 219.235 2305.34 218.988 2305.41C218.485 2305.57 218.074 2305.7 217.921 2305.74C217.566 2305.85 217.268 2305.93 217.162 2305.96C216.736 2306.09 216.213 2306.23 215.888 2306.32C212.861 2307.19 203.301 2309.53 195.377 2310.3C191.372 2310.73 187.8 2310.88 184.598 2310.85C181.567 2310.81 178.559 2310.7 175.732 2310.59C175.153 2310.56 174.563 2310.54 173.963 2310.51C168.786 2310.28 163.163 2309.97 155.092 2309.54C150.163 2309.27 146.687 2308.79 147.301 2308.46C147.957 2308.13 152.397 2308.08 157.326 2308.35C165.794 2308.8 171.768 2309.11 177.006 2309.32C177.534 2309.34 178.203 2309.37 178.78 2309.39C180.723 2309.46 182.765 2309.51 184.598 2309.54C188.201 2309.57 191.977 2309.4 196.556 2308.85C206.77 2307.55 214.059 2305.52 220.608 2303.53C237.364 2297.37 251.458 2294.79 287.039 2268.3C296.025 2260.96 307.475 2250.88 317.437 2234.42C327.277 2218.76 334.533 2191.37 320.153 2166.51C282.201 2120.35 221.959 2153.34 160.994 2144.26C122.874 2142.73 73.114 2115.55 55.1265 2063.92C54.8999 2063.36 54.6748 2062.8 54.4512 2062.23C47.9499 2045.7 43.8327 2029.54 40.6292 2012.17C33.9832 1976.42 30.7462 1943 35.0723 1917.77C47.2948 1845.53 115.381 1798.61 171.289 1751.1C232.74 1705.58 303.765 1656.17 334.763 1577.54C345.798 1549.9 350.858 1522.69 352.452 1497.75C354.334 1467.87 351.566 1440.67 347.067 1416.11C340.342 1379.4 326.577 1348.02 306.851 1322.34C299.743 1312.99 279.66 1287.84 242.036 1263.82C231.109 1256.74 218.751 1249.64 205.202 1242.57C172.27 1224.81 130.474 1209.42 90.4475 1182.56C82.2177 1176.84 75.2252 1171.17 69.1184 1165.31C57.9734 1154.54 49.3715 1143.21 42.8478 1128.2C34.0656 1107.2 24.1273 1081.73 18.0119 1041.75C-3.68653 952.98 59.9766 810.957 116.951 756.01C143.241 726.604 160.47 711.823 172.097 701.375C175.568 698.311 178.184 696.045 181.12 693.491C183.403 691.51 185.989 689.262 187.942 687.523C192.203 683.724 196.177 680.149 200.739 675.985C250.442 628.602 288.924 596.788 327.665 525.317C329.891 520.817 331.971 516.828 332.453 516.63C332.944 516.399 331.638 520.143 329.443 524.653C290.863 596.779 251.715 629.199 201.297 677.235C196.874 681.271 192.918 684.831 188.814 688.49C187.636 689.539 186.325 690.688 184.852 691.973C183.54 693.116 182.279 694.209 180.79 695.504C178.076 697.863 175.25 700.324 172.16 703.057C160.686 713.394 143.721 727.98 117.652 757.18C60.9433 811.971 -2.21715 953.248 19.2676 1041.35C25.3957 1081.5 35.3027 1106.76 44.0461 1127.69C50.2113 1141.88 58.2979 1152.81 68.9139 1163.3C74.8843 1169.15 81.8164 1174.89 90.0173 1180.66C129.675 1207.65 171.638 1223.09 204.659 1240.82C218.228 1247.86 230.611 1254.92 241.556 1261.96C280.108 1286.49 299.017 1310.43 305.353 1318.26C326.605 1344.77 341.386 1377.72 348.347 1415.88C352.963 1441.05 355.686 1468.75 353.688 1498.78C352.029 1523.54 346.924 1550.34 336.281 1577.24ZM353.803 241.928C354.02 246.905 353.878 251.209 353.531 251.573C353.183 251.929 352.766 248.231 352.555 243.254C351.439 217.064 349.773 198.219 348.114 183.525C344.881 156.329 342.43 143.24 337.877 123.801C326.8 74.6112 298.87 23.5423 252.406 9.45229C249.82 8.58294 247.189 7.80576 244.517 7.11962C173.855 -5.02781 115.796 3.82728 86.2873 15.6153C81.4909 17.448 77.5935 18.9549 77.4946 18.6006C77.3853 18.2598 81.1582 16.1765 85.9957 14.3354C115.719 2.5419 173.657 -6.3717 244.84 5.86147C247.279 6.4877 249.684 7.18917 252.054 7.96681C299.296 21.8631 327.921 73.6086 339.084 123.263C343.523 142.165 345.901 154.607 349.16 181.207C350.87 195.908 352.628 215.027 353.803 241.928Z" fill="url(#paint0_linear_2065_1217)" fill-opacity="0.3"/>
<defs>
<linearGradient id="paint0_linear_2065_1217" x1="12.2354" y1="193.958" x2="360.383" y2="199.196" gradientUnits="userSpaceOnUse">
<stop stop-color="#E9480E"/>
<stop offset="1" stop-color="#E9480E" stop-opacity="0.2"/>
</linearGradient>
</defs>
</svg>
