 <svg xmlns="http://www.w3.org/2000/svg" width="1203" height="1416" viewBox="0 0 1203 1416" fill="none">
                    <path id="timeline-path"
                        d="M166.695 74.2662C214.032 64.4158 272.904 53.8333 320.244 46.7074C320.91 46.6067 321.576 46.5061 322.241 46.4057C341.498 43.5037 361.391 40.6583 385.18 37.4528C388.262 37.0376 391.402 36.6183 394.585 36.1961C422.919 32.4685 457.788 27.9551 505.33 22.8748C525.178 20.8334 544.415 18.758 562.449 17.9295C694.86 13.4446 795.799 21.6866 829.667 25.7764C905.255 37.1408 998.758 41.7975 1082.32 114.915C1089.29 122.08 1095.55 129.958 1100.84 138.824C1105.11 145.949 1107.45 152.476 1107.19 152.767C1106.92 153.087 1104.23 147.126 1100.06 140.062C1094.99 131.444 1088.97 123.759 1082.33 116.793C1082.29 116.761 1082.26 116.729 1082.23 116.697C999.213 43.2516 907.127 39.0312 833.754 27.5583C799.297 23.2526 697.046 14.6552 562.493 19.2309C543.575 20.1122 522.86 22.3696 501.772 24.568C453.733 29.7625 418.584 34.3418 390.046 38.1271C386.925 38.5443 383.771 38.9693 380.892 39.3593C380.823 39.3685 380.754 39.3778 380.685 39.3871C356.63 42.6553 337.783 45.3733 319.262 48.1776C318.867 48.2378 318.472 48.2981 318.077 48.3584C270.237 55.5874 212.541 66.0451 166.64 75.6045C157.986 77.3942 150.82 78.6497 150.842 78.2769C150.855 77.9078 158.031 76.0567 166.695 74.2662ZM1025.04 700.491C1047.44 711.124 1071.87 728.331 1089.28 753.092C1104.08 773.8 1116.09 799.328 1112.52 823.05C1101.05 876.835 1041.47 892.607 1022.78 901.329C1001.42 909.295 977.023 916.546 947.478 923.547C940.788 925.13 933.51 926.768 926.329 928.303C902.135 933.483 875.043 938.406 845.172 943.078C761.177 955.938 699.096 962.781 651.705 970.316C637.131 972.556 624.283 974.287 611.986 976.025C601.399 977.511 591.695 978.889 582.326 980.253C582.311 980.255 582.296 980.257 582.281 980.26C547.714 985.292 521.685 989.553 497.947 993.619C455.508 1000.98 421.222 1007.84 379.999 1018.07C323.272 1031.84 243.207 1059.66 198.911 1094.19C196.473 1096.02 194.096 1097.88 191.645 1099.89C169.874 1118.34 140.632 1146.44 140.123 1194.84C140.343 1215.71 158.215 1229.6 174.738 1238.89C230.139 1266.78 283.01 1273.87 328.477 1282.52C341.535 1284.75 354.396 1286.76 366.203 1288.49C397.054 1293 424.129 1296.28 449.714 1299.06C609.65 1315.42 701.985 1319.25 759.98 1323.44C804.641 1326.32 829.632 1328.04 847.451 1329.31C852.781 1329.68 857.63 1330.02 862.209 1330.34C902.183 1333.09 939.658 1335.4 983.949 1338.62C993.856 1339.34 1003.65 1340.08 1014.74 1340.98C1050.34 1343.85 1076.93 1346.35 1097.77 1348.94C1106.38 1350 1114.92 1351.23 1121.92 1352.45C1122.05 1352.47 1122.18 1352.5 1122.31 1352.52C1123.27 1352.69 1124.21 1352.86 1125.11 1353.03C1125.46 1353.09 1125.8 1353.15 1126.13 1353.22C1126.54 1353.29 1126.98 1353.38 1127.39 1353.46C1127.72 1353.52 1128.01 1353.58 1128.23 1353.62C1128.4 1353.65 1128.54 1353.68 1128.62 1353.69C1128.64 1353.7 1128.66 1353.7 1128.67 1353.7C1130.22 1354 1131.47 1354.27 1131.73 1354.33C1132.17 1354.42 1132.56 1354.51 1132.76 1354.55C1133.8 1354.79 1135.08 1355.1 1135.9 1355.31C1136.84 1355.54 1138.06 1355.86 1139.47 1356.27C1141.76 1356.93 1144.59 1357.77 1147.86 1358.78C1153.17 1360.43 1157.97 1361.95 1164.48 1364.34C1164.87 1364.48 1165.25 1364.62 1165.62 1364.77C1171.52 1367.07 1178.79 1369.75 1185.24 1374.41C1186.48 1375.33 1187.49 1376.5 1187.53 1376.72C1187.58 1376.82 1187.41 1376.61 1187.37 1376.08C1187.32 1375.56 1187.46 1375.02 1187.55 1374.8C1187.75 1374.37 1187.39 1374.81 1186.93 1375.05C1186.51 1375.28 1186.05 1375.47 1185.84 1375.5C1185.35 1375.58 1186.28 1374.86 1186.78 1374.22C1186.89 1374.08 1186.9 1373.99 1186.8 1374.09C1186.69 1374.2 1186.41 1374.61 1186.27 1375.31C1186.12 1376.01 1186.27 1376.91 1186.37 1377.14C1186.49 1377.46 1186.45 1377.32 1186.21 1377.04C1182.92 1373.52 1175.11 1370.01 1169.9 1367.86C1169.52 1367.7 1169.14 1367.55 1168.75 1367.39C1162.71 1364.98 1156.81 1362.97 1149.92 1360.79C1147.84 1360.13 1145.6 1359.45 1143.42 1358.8C1142.08 1358.4 1140.65 1357.99 1139.1 1357.54C1136.85 1356.91 1134.06 1356.2 1130.43 1355.43C1129.32 1355.19 1128.14 1354.95 1126.88 1354.71C1123.27 1354.01 1119.84 1353.41 1115.4 1352.71C1113.21 1352.37 1110.85 1352.02 1108.33 1351.66C1106.23 1351.36 1103.99 1351.06 1101.62 1350.75C1078.43 1347.74 1049.11 1345.03 1010.33 1341.94C999.457 1341.08 990.552 1340.41 980.593 1339.69C936.05 1336.48 896.295 1334.03 853.378 1331.09C847.604 1330.69 842.028 1330.3 836.026 1329.87C818.089 1328.61 796.916 1327.14 755.633 1324.47C700.358 1320.45 610.223 1316.72 451.142 1300.52C424.241 1297.62 395.353 1294.11 363.978 1289.48C352.481 1287.78 339.918 1285.8 327.707 1283.71C282.841 1275.28 231.79 1267.9 177.808 1242.03C159.616 1232.4 139.151 1217.91 138.806 1194.84C139.055 1149.89 164.802 1121.95 185.231 1103.58C186.283 1102.65 187.35 1101.74 188.43 1100.83C189.758 1099.71 191.174 1098.55 192.448 1097.52C238.737 1059.13 324.76 1029.66 387.403 1014.86C426.886 1005.35 459.865 998.808 501.999 991.598C522.737 988.1 544.896 984.425 578.924 979.434C588.419 978.043 598.875 976.553 610.668 974.898C623.221 973.122 636.599 971.323 651.505 969.032C699.658 961.377 762.439 954.494 847.049 941.465C875.962 936.91 901.835 932.207 925.874 927.071C933.193 925.507 940.715 923.816 947.74 922.149C977.381 915.1 1004.52 907.179 1028.98 897.513C1046.26 889.096 1103.05 872.421 1111.51 820.579C1114.03 797.476 1101.98 773.132 1088.22 753.844C1072.2 731.154 1050.99 715.509 1031.86 705.435C1028.17 703.486 1024.5 701.683 1020.67 699.936C987.675 684.834 950.512 677.934 920.551 674.908C785.848 659.197 541.036 704.098 378.917 723.14C376.757 723.392 374.602 723.64 372.453 723.885C246.331 737.437 130.793 744.561 73.723 689.129C48.2411 664.981 45.3098 632.855 50.3484 617.406C50.9463 615.011 51.6107 612.846 52.2762 610.91C52.8434 609.262 53.3922 607.828 53.9135 606.545C62.1799 586.981 74.0737 573.549 87.0773 560.685C87.7863 559.997 88.5035 559.31 89.2287 558.624C103.467 545.228 119.197 533.264 139.034 520.376C212.97 473.917 279.115 448.569 335.82 426.652C346.377 422.681 356.651 418.927 366.705 415.342C366.735 415.332 366.764 415.321 366.794 415.311C410.953 399.596 450.613 387.068 488.498 376.082C556.993 356.464 603.556 345.557 641.426 339.596C641.844 339.534 642.263 339.472 642.683 339.411C654.29 337.715 665.444 336.3 675.453 335.063C697.544 332.355 716.826 330.187 736.728 327.897C773.859 323.643 808.278 319.408 841.772 314.504C844.76 314.067 847.746 313.624 850.731 313.174C887.072 307.663 922.864 301.427 960.107 292.611C968.774 290.552 975.835 288.999 976.163 289.287C976.381 289.598 969.726 291.654 961.066 293.719C924.813 302.331 889.936 308.499 853.58 314.062C850.578 314.519 847.563 314.971 844.544 315.417C811.097 320.357 776.097 324.692 738.232 329.033C719.019 331.245 700.855 333.29 679.208 335.917C668.956 337.172 657.983 338.537 645.348 340.341C644.098 340.521 642.853 340.702 641.614 340.886C603.648 346.859 557.089 357.808 489.492 377.149C452.086 387.985 412.951 400.311 368.832 415.966C358.699 419.569 348.351 423.34 337.667 427.349C280.839 449.259 214.389 474.655 140.155 521.2C121.514 533.287 106.404 544.593 92.2933 557.547C91.4959 558.283 90.708 559.019 89.9295 559.757C77.1482 572.097 64.1436 586.122 55.4354 606.266C54.3386 608.905 53.0097 612.377 51.823 616.884C46.6743 632.094 49.077 663.962 74.6497 688.218C131.097 743.149 246.67 736.163 372.844 722.532C373.433 722.465 374.021 722.398 374.611 722.33C500.779 706.879 570.933 695.121 624.227 688.276C666.244 682.585 697.553 679.157 723.519 676.767C728.434 676.315 733.069 675.908 737.473 675.538C756.899 673.919 771.705 672.956 787.101 672.105C832.882 669.754 865.986 669.443 905.673 672.137C939.246 674.481 980.263 681.438 1013.44 695.326C1013.49 695.347 1013.54 695.368 1013.59 695.389C1017.57 697.033 1021.39 698.741 1025.04 700.491ZM1081.2 1390.22C1072.25 1390.39 1065.15 1390.11 1065.21 1389.75C1065.32 1389.39 1072.56 1389.09 1081.49 1388.92C1102.63 1388.5 1123.93 1387.54 1144.69 1385.2C1153.51 1384.21 1160.38 1383.32 1160.32 1383.7C1160.35 1384.06 1153.38 1385.54 1144.53 1386.53C1123.67 1388.86 1102.36 1389.81 1081.2 1390.22ZM992.868 680.696C1001.39 683.323 1009.18 686.615 1011.05 687.754C1012.76 688.846 1007.52 686.974 999.329 684.195C995.018 682.736 987.507 680.308 977.628 677.774C906.109 651.559 693.729 667.476 473.888 703.727C455.504 706.369 438.443 708.769 422.778 710.888C354.574 717.745 300.014 735.153 167.959 723.618C135.686 718.738 101.723 709.576 77.5731 685.345C53.8518 663.964 46.1233 625.716 63.9562 598.339C79.66 571.263 104.434 551.36 129.365 533.791C180.021 499.1 235.942 473.408 292.276 450.212C405.658 405.076 522.241 367.895 642.405 346.32C730.892 334.579 820.247 327.501 908.011 311.291C951.8 303.146 995.557 293.37 1037.05 277.339C1076.12 261.645 1125.4 236.609 1123.24 190.149C1115.74 87.1213 998.9 50.1945 910.395 31.6218C795.904 9.28467 678.628 7.85774 562.228 11.4237C520.986 14.0248 478.469 19.6287 436.747 24.8936C305.257 40.8543 64.4105 82.6231 14.0037 111.604C11.9854 112.564 10.2462 113.415 8.56921 114.259C6.73936 115.184 5.19371 115.998 3.94162 116.664C1.44336 117.994 0.076876 118.73 0.00234556 118.558C-0.051445 118.385 1.2093 117.331 3.67691 115.754C4.91261 114.966 6.45808 114.048 8.30009 113.048C9.89745 112.176 11.7114 111.25 13.7403 110.291C64.2045 81.406 304.137 39.7264 435.213 23.7815C477.37 18.45 520.327 12.7715 562.184 10.1236C677.855 6.56905 794.431 7.9853 908.394 29.8908C997.553 48.4455 1116.61 84.7822 1124.67 190.064C1126.78 237.854 1076.75 262.958 1037.64 278.781C996.002 294.922 952.19 304.76 908.35 312.975C820.51 329.317 731.045 336.533 642.705 348.384C522.929 370.063 406.297 407.426 293.183 452.622C236.974 475.842 181.189 501.565 130.886 536.089C106.135 553.544 81.6302 573.381 66.3936 599.754C49.2555 626.469 56.5191 662.263 79.6127 683.341C103.147 706.978 136.855 716.096 169.089 720.876C298.953 732.026 351.721 716.827 419.657 709.993C435.401 707.875 452.439 705.486 471.067 702.814C687.938 667.355 896.556 650.377 970.137 674.566C980.294 676.919 988.136 679.224 992.868 680.696ZM941.541 932.016C862.9 950.612 755.316 962.398 652.832 977.552C628.146 981.276 602.93 984.513 578.908 988.02C518.785 996.626 463.309 1006.61 419.299 1016.74C351.157 1032.53 309.273 1046.18 269.024 1063.29C268.595 1063.48 268.166 1063.66 267.739 1063.85C230.442 1082.77 180.457 1098.08 151.223 1164.15C148.017 1173.52 146.142 1183.78 146.148 1194.84C150.508 1231.38 197.031 1243.84 233.264 1255.71C272.21 1266.99 314.6 1274.65 357.279 1281.04C357.355 1281.05 357.431 1281.06 357.507 1281.07C456.096 1295.51 556.658 1302.2 629.45 1307.52C882.99 1324.68 1040.01 1330.12 1118.41 1343.74C1125.75 1345.03 1134.96 1346.89 1141.61 1348.91C1151.6 1351.9 1160.88 1354.89 1170.39 1358.69C1179.24 1362.71 1191.15 1366.26 1194.55 1375.44C1194.72 1380.43 1188.79 1382.85 1184.26 1384.73C1179.27 1386.63 1174.54 1387.79 1169.26 1388.91C1159.07 1391.01 1148.58 1392.32 1138.17 1393.35C1096.19 1397.24 1053.49 1397.18 1011.02 1395.69C997.213 1395.23 983.606 1394.6 969.828 1395.09C968.006 1395.22 966.49 1395.19 964.521 1395.8C964.409 1395.84 964.304 1395.89 964.201 1395.95C963.977 1396.09 963.646 1396.34 963.594 1396.83C963.567 1397.05 963.658 1397.31 963.716 1397.41C963.768 1397.5 963.827 1397.58 963.887 1397.65C964.009 1397.78 964.138 1397.88 964.278 1397.97C964.406 1398.06 964.609 1398.16 964.702 1398.21C964.788 1398.25 964.879 1398.29 964.975 1398.33C965.166 1398.41 965.377 1398.5 965.608 1398.58C966.133 1398.76 966.464 1398.86 966.87 1398.97C967.273 1399.09 967.713 1399.21 968.191 1399.33C971.516 1400.14 974.799 1400.74 978.243 1401.35C984.953 1402.52 991.688 1403.53 998.337 1404.49C1025.14 1408.33 1051.62 1411.61 1077.62 1414.93C1093.04 1417.03 1066.82 1415.08 1038.23 1411.31C1037.19 1411.18 1036.16 1411.04 1035.13 1410.91C1025.3 1409.62 1016.71 1408.48 1004.62 1406.8C995.84 1405.59 988.191 1404.48 981.228 1403.34C977.837 1402.79 974.465 1402.2 971.296 1401.56C969.625 1401.21 968.247 1400.92 966.51 1400.44C965.861 1400.25 964.784 1399.93 964.032 1399.56C963.723 1399.41 963.317 1399.2 962.893 1398.79C962.785 1398.69 962.672 1398.56 962.559 1398.4C962.442 1398.22 962.357 1398.15 962.186 1397.65C961.848 1396.75 962.348 1395.51 962.835 1395.11C963.059 1394.88 963.343 1394.7 963.45 1394.64C963.532 1394.59 963.611 1394.55 963.689 1394.51C963.843 1394.44 963.99 1394.38 964.134 1394.33C964.424 1394.22 964.708 1394.15 965.014 1394.08C972.674 1392.84 988.662 1393.36 1011.07 1394.14C1043.8 1395.31 1089.33 1396.17 1134.9 1392.28C1146.29 1391.26 1157.72 1389.91 1168.64 1387.7C1174.3 1386.53 1179.57 1385.22 1184.55 1383.23C1189.31 1381.39 1194.89 1377.87 1192.95 1374.38C1180.02 1359.82 1157.27 1355.66 1141.25 1350.15C1136.69 1348.77 1130.34 1347.35 1125.54 1346.41C1120.93 1345.5 1116.18 1344.68 1111.59 1343.95C1037.61 1331.77 883.765 1327.48 628.522 1310.33C557.055 1305.09 458.554 1297.04 359.368 1282.66C359.101 1282.62 358.834 1282.59 358.568 1282.55C316.048 1276.22 273.502 1268.61 234.118 1257.32C197.515 1245.22 149.953 1233.6 144.847 1194.84C144.841 1183.69 146.724 1173.31 149.962 1163.82C180.875 1094.55 234.033 1079.54 271.839 1060.65C272.237 1060.49 272.635 1060.32 273.034 1060.15C313.076 1043.58 353.261 1030.73 418.918 1015.49C463.921 1005.14 520.175 995.077 580.623 986.458C604.035 983.053 628.718 979.878 652.632 976.266C754.83 961.155 861.592 949.45 939.85 931.071C948.635 929.063 955.939 927.536 956.48 927.773C956.901 928.035 950.302 929.999 941.541 932.016ZM941.312 940.375C846.143 962.247 749.142 971.941 654.232 986.542C479.586 1017.28 259.627 1019.77 160.899 1164.86C157.509 1173.94 155.49 1183.93 155.483 1194.84C156.242 1219.34 200.474 1236.51 236.508 1247.17C274.931 1258.35 317.136 1266.09 359.486 1272.54C360.589 1272.71 361.696 1272.88 362.806 1273.04C461.283 1287.54 560.284 1295.01 631.448 1300.2C884.819 1317.35 1042.26 1322 1121.81 1336.11C1128.95 1337.39 1138.09 1339.36 1143.87 1341.13C1157.66 1345.28 1169.02 1349.2 1178.77 1353.52C1183.5 1355.63 1188.25 1358.03 1192.26 1360.77C1194.62 1362.42 1196.29 1363.66 1198.54 1366.19C1200.25 1368.19 1202.84 1371.77 1202.52 1376.82C1202.34 1379.23 1201.52 1381.24 1200.43 1382.93C1199.4 1384.49 1198.39 1385.53 1197.23 1386.54C1195.24 1388.25 1192.95 1389.53 1191.28 1390.35C1190.37 1390.81 1189.42 1391.23 1188.45 1391.64C1187.55 1392.01 1186.75 1392.32 1185.86 1392.64C1184.09 1393.28 1182.32 1393.83 1180.72 1394.3C1173.93 1396.24 1167.6 1397.46 1160.7 1398.58C1159.87 1398.71 1159.02 1398.84 1158.17 1398.97C1158.12 1398.98 1158.06 1398.99 1158 1399C1156.93 1399.17 1156.01 1399.31 1155.54 1399.39C1154.63 1399.52 1153.9 1399.62 1153.62 1399.66C1152.98 1399.75 1152.43 1399.83 1152.24 1399.85C1151.45 1399.96 1150.53 1400.07 1149.93 1400.15C1144.44 1400.89 1127.3 1402.53 1113.76 1403.17C1099.87 1403.87 1089.94 1404.07 1079.57 1404.19C1078.51 1404.2 1077.45 1404.21 1076.39 1404.22C1067.02 1404.28 1056.79 1404.27 1042.11 1404C1033.1 1403.83 1026.82 1403.32 1027.91 1403C1029.03 1402.67 1037.16 1402.62 1046.1 1402.76C1061.57 1403 1072.34 1402.96 1081.82 1402.85C1082.86 1402.83 1083.89 1402.82 1084.92 1402.8C1095 1402.63 1103.54 1402.41 1115.93 1401.74C1133.62 1400.72 1147.02 1399.36 1159.12 1397.51C1165.89 1396.45 1172.55 1395.22 1179.36 1393.33C1182.7 1392.39 1186.17 1391.31 1190.03 1389.51C1191.78 1388.69 1193.98 1387.5 1195.83 1386.01C1196.92 1385.14 1198.03 1384.06 1198.93 1382.81C1199.98 1381.38 1200.88 1379.52 1201.15 1377.39C1201.78 1372.82 1199.32 1369.09 1197.69 1367.19C1195.55 1364.75 1193.86 1363.48 1191.53 1361.86C1187.56 1359.14 1182.77 1356.73 1178.07 1354.65C1168.33 1350.35 1157.05 1346.47 1143.5 1342.4C1139.71 1341.27 1135.22 1340.14 1129.83 1339.02C1125.22 1338.06 1120.64 1337.21 1115.03 1336.29C1039.93 1323.69 886.469 1318.6 631.45 1301.5C560.139 1296.31 461.01 1288.82 362.547 1274.32C361.406 1274.15 360.268 1273.98 359.134 1273.81C316.723 1267.34 274.489 1259.59 236.003 1248.38C199.949 1237.53 155.435 1221 154.184 1194.84C154.19 1183.8 156.23 1173.67 159.652 1164.49C261.4 1015.65 480.385 1014.69 653.822 983.905C747.909 969.551 844.09 960.377 939.585 939.434C990.57 927.601 1037.75 914.083 1076.91 889.408C1101.53 873.912 1123.9 849.347 1125.32 819.42C1126.83 790.141 1112.97 765.801 1099.18 746.065C1060.28 692.276 1000.25 673.461 947.306 664.211C926.492 660.464 871.007 653.395 791.847 657.454C768.447 658.543 743.052 660.406 715.799 663.034C648.543 669.418 569.763 680.994 480.974 693.943C462.467 696.616 445.671 699.003 429.882 701.169C362.416 708.346 307.591 723.991 178.443 715.448C147.841 711.578 110.121 704.35 84.3347 678.701C71.053 665.328 61.5447 648.182 63.3735 629.68C64.9891 611.156 76.5891 593.629 90.3022 578.927C118.418 549.312 155.742 526.692 191.729 507.238C264.772 468.532 338.407 441.681 392.937 422.908C461.519 399.723 500.65 389.285 528.595 381.708C536.405 379.628 543.408 377.817 549.525 376.266C565.987 372.106 579.002 368.979 595.359 365.34C612.571 361.548 628.419 358.355 643.827 356.093C741.945 342.791 824.458 338.559 945.583 313.321C954.396 311.396 962.054 309.863 962.838 310.046C963.574 310.236 957.044 312.122 948.265 314.066C826.9 339.646 743.366 343.931 644.014 357.379C628.387 359.675 612.325 362.923 594.903 366.773C577.756 370.598 563.765 373.987 547.202 378.201C541.172 379.74 534.196 381.558 527.012 383.479C499.556 390.954 460.804 401.312 392.654 424.379C338.247 443.13 264.757 469.961 191.965 508.587C156.114 527.987 118.929 550.581 91.095 579.983C77.5129 594.571 66.1762 611.891 64.6595 629.901C62.9248 647.87 72.1467 664.572 85.2623 677.789C110.52 702.955 147.83 710.253 178.199 714.11C305.729 722.706 359.478 707.413 426.781 700.277C442.544 698.125 459.499 695.723 478.123 693.036C567.046 680.085 646.001 668.431 713.352 661.961C740.618 659.299 765.996 657.401 789.255 656.271C870.29 652.077 922.009 658.877 940.36 661.75C995.304 670.424 1059.52 688.963 1100.24 745.312C1114.36 765.486 1128.65 790.757 1126.52 820.858C1124.4 851.752 1100.88 876.126 1076.17 891.424C1036.99 915.626 990.715 928.829 941.312 940.375ZM918.333 23.0673C927.298 24.9481 934.809 27.0382 935.335 27.5316C935.857 28.0306 929.294 26.7387 920.341 24.826C873.836 15.0656 839.632 11.4455 813.163 8.74054C763.842 4.15574 740.083 3.35346 704.416 2.14536C655.801 0.731092 607.99 1.20213 561.934 2.75339C520.774 5.32021 481.505 10.5518 443.861 15.2093C312.223 32.0506 205.497 51.4294 149.366 63.6414C140.483 65.5469 133.514 66.8221 133.519 66.4517C133.539 66.0809 140.528 64.2065 149.416 62.3014C205.192 50.1801 311.143 30.9206 442.328 14.096C480.374 9.37864 520.031 4.07557 561.89 1.45445C607.781 -0.0916533 655.478 -0.56831 704.026 0.832911C738.622 1.99466 761.2 2.73468 809.347 7.06365C835.773 9.688 870.521 13.1973 918.333 23.0673Z"
                        stroke="#E9480E" stroke-width="2" fill="none" />
                    <defs>
                        <linearGradient id="paint0_linear_2008_785" x1="25.6201" y1="129.995" x2="1222.41" y2="241.524"
                            gradientUnits="userSpaceOnUse">
                            <stop stop-color="#E9480E" />
                            <stop offset="1" stop-color="#E9480E" stop-opacity="0.2" />
                        </linearGradient>
                    </defs>
                </svg>