<svg width="25" height="24" viewBox="0 0 25 24" fill="none" xmlns="http://www.w3.org/2000/svg">
<path d="M2.11974 8.35796L9.64782 12.7083V1.3695C6.17024 2.30218 3.31224 4.95366 2.11974 8.35796Z" fill="#E9480E"/>
<path d="M4.15815 19.1674L11.6862 14.8171L1.87307 9.15438C1.62658 10.0871 1.5 11.0397 1.5 11.9991C1.5 14.6372 2.44601 17.1755 4.15815 19.1674Z" fill="#E9480E"/>
<path d="M12.499 1C11.8128 1 11.1266 1.06662 10.4604 1.18654V9.88713L20.2736 4.22442C18.195 2.13921 15.4436 1 12.499 1Z" fill="#E9480E"/>
<path d="M12.4991 23C13.1852 23 13.8714 22.9334 14.5376 22.8135V14.1129L4.72448 19.7756C6.80303 21.8608 9.55444 23 12.4991 23Z" fill="#E9480E"/>
<path d="M20.8402 4.83246L13.3121 9.18276L23.1252 14.8521C23.3717 13.9261 23.4983 12.9668 23.4983 12.0075C23.4983 9.3693 22.559 6.82441 20.8402 4.83246Z" fill="#E9480E"/>
<path d="M22.8784 15.6365L15.3504 11.2862V22.6183C18.8279 21.6923 21.6859 19.0408 22.8784 15.6365Z" fill="#E9480E"/>
</svg>
