<svg width="24" height="24" viewBox="0 0 24 24" fill="none" xmlns="http://www.w3.org/2000/svg">
<path d="M13.4303 14.9995H4.40034C2.58034 14.9995 1.42034 13.0495 2.30034 11.4495L4.63034 7.20945L6.81034 3.23945C7.72034 1.58945 10.1003 1.58945 11.0103 3.23945L13.2003 7.20945L14.2503 9.11945L15.5303 11.4495C16.4103 13.0495 15.2503 14.9995 13.4303 14.9995Z" fill="#E9480E"/>
<path d="M22.6507 16.0009C22.6507 19.5909 19.7407 22.5009 16.1507 22.5009C13.1007 22.5009 10.5507 20.4109 9.84075 17.5709C9.77075 17.2709 10.0007 17.0009 10.3107 17.0009H14.0807C15.4707 17.0009 16.7307 16.2809 17.4407 15.0909C18.1407 13.8909 18.1707 12.4509 17.4907 11.2309L16.9907 10.3109C16.8007 9.97093 17.0707 9.56093 17.4507 9.63093C20.4107 10.2309 22.6507 12.8509 22.6507 16.0009Z" fill="#E9480E"/>
</svg>
