<svg width="25" height="24" viewBox="0 0 25 24" fill="none" xmlns="http://www.w3.org/2000/svg">
<path d="M15.2295 2H9.76953V6.36H15.2295V2Z" fill="#E9480E"/>
<path d="M16.7305 2V6.36H22.3705C21.8605 3.61 19.8305 2.01 16.7305 2Z" fill="#E9480E"/>
<path d="M2.5 7.85938V16.1894C2.5 19.8294 4.67 21.9994 8.31 21.9994H16.69C20.33 21.9994 22.5 19.8294 22.5 16.1894V7.85938H2.5ZM14.94 16.1794L12.86 17.3794C12.42 17.6294 11.99 17.7594 11.59 17.7594C11.29 17.7594 11.02 17.6894 10.77 17.5494C10.19 17.2194 9.87 16.5394 9.87 15.6594V13.2594C9.87 12.3794 10.19 11.6994 10.77 11.3694C11.35 11.0294 12.09 11.0894 12.86 11.5394L14.94 12.7394C15.71 13.1794 16.13 13.7994 16.13 14.4694C16.13 15.1394 15.7 15.7294 14.94 16.1794Z" fill="#E9480E"/>
<path d="M8.27086 2C5.17086 2.01 3.14086 3.61 2.63086 6.36H8.27086V2Z" fill="#E9480E"/>
</svg>
