<svg width="1031" height="922" viewBox="0 0 1031 922" fill="none" xmlns="http://www.w3.org/2000/svg">
<path d="M341.375 393.118L467.62 320.165V510.313C409.302 494.672 361.373 450.208 341.375 393.118Z" fill="#E9480E"/>
<path d="M375.559 211.846L501.804 284.8L337.239 379.762C333.105 364.121 330.982 348.145 330.982 332.058C330.982 287.816 346.847 245.25 375.559 211.846Z" fill="#E9480E"/>
<path d="M515.434 516.51C503.926 516.51 492.419 515.393 481.247 513.382V367.474L645.812 462.437C610.955 497.406 564.814 516.51 515.434 516.51Z" fill="#E9480E"/>
<path d="M515.435 147.574C526.942 147.574 538.449 148.691 549.621 150.702V296.609L385.056 201.647C419.913 166.678 466.054 147.574 515.435 147.574Z" fill="#E9480E"/>
<path d="M655.313 452.24L529.069 379.286L693.633 284.212C697.767 299.741 699.89 315.829 699.89 331.917C699.89 376.158 684.137 418.836 655.313 452.24Z" fill="#E9480E"/>
<path d="M689.495 271.058L563.25 344.012V153.975C621.569 169.504 669.497 213.969 689.495 271.058Z" fill="#E9480E"/>
<path d="M193.843 694.171V709.005H147.574V694.171H158.747V636.035H147.574V621.201H193.843C204.616 621.201 212.927 623.726 218.777 628.776C224.668 633.826 227.614 640.622 227.614 649.165C227.614 654.046 226.583 658.486 224.521 662.483C222.459 666.439 219.808 669.49 216.567 671.636C213.369 673.74 209.687 675.192 205.521 675.992C201.397 676.749 196.221 677.128 189.993 677.128H181.597V694.171H193.843ZM181.597 662.483H185.006C192.833 662.483 197.862 661.221 200.092 658.696C202.365 656.129 203.501 652.952 203.501 649.165C203.501 645.966 202.722 643.252 201.165 641.022C199.608 638.749 197.82 637.361 195.8 636.856C193.78 636.309 190.477 636.035 185.89 636.035H181.597V662.483Z" fill="white"/>
<path d="M297.092 694.928V709.005H254.105V694.928H265.404V662.042H254.799V647.902H283.268V663.43C284.362 658.97 286.845 655.119 290.716 651.879C294.63 648.596 299.238 646.955 304.54 646.955C305.424 646.955 306.476 646.976 307.696 647.018V665.45C302.773 665.45 298.754 665.997 295.64 667.091C292.526 668.185 289.959 670.584 287.939 674.287C285.919 677.991 284.909 682.367 284.909 687.417V694.928H297.092Z" fill="white"/>
<path d="M366.317 710.393C357.311 710.393 349.695 707.553 343.466 701.872C337.28 696.149 334.187 688.322 334.187 678.39C334.187 668.459 337.28 660.653 343.466 654.972C349.695 649.249 357.311 646.387 366.317 646.387C375.364 646.387 382.981 649.249 389.167 654.972C395.353 660.653 398.446 668.459 398.446 678.39C398.446 688.195 395.374 695.98 389.23 701.746C383.128 707.511 375.491 710.393 366.317 710.393ZM366.254 695.244C369.873 695.244 372.797 693.855 375.028 691.078C377.3 688.301 378.436 683.945 378.436 678.012C378.436 672.793 377.342 668.733 375.154 665.829C372.966 662.883 369.999 661.41 366.254 661.41C358.216 661.41 354.197 667.218 354.197 678.832C354.197 683.587 355.186 687.522 357.164 690.636C359.184 693.708 362.214 695.244 366.254 695.244Z" fill="white"/>
<path d="M428.536 709.005V677.128H439.519V684.892C444.779 694.444 451.659 699.221 460.16 699.221C464.494 699.221 468.155 697.895 471.143 695.244C474.131 692.593 475.625 689.121 475.625 684.829C475.625 680.663 474.405 677.675 471.964 675.865C469.523 674.014 464.915 672.183 458.14 670.374C450.271 668.27 444.442 666.292 440.655 664.44C436.868 662.547 433.838 659.874 431.565 656.424C429.335 652.931 428.22 648.807 428.22 644.052C428.22 636.687 430.661 630.817 435.542 626.44C440.466 622.022 446.631 619.812 454.037 619.812C461.065 619.812 467.587 622.085 473.605 626.63V620.759H484.336V647.397H473.605V641.274C469.102 634.499 462.895 631.111 454.984 631.111C450.187 631.111 446.504 632.227 443.937 634.457C441.37 636.645 440.087 639.275 440.087 642.347C440.087 644.704 440.739 646.787 442.044 648.596C443.348 650.364 445.011 651.668 447.03 652.51C449.05 653.352 453.027 654.53 458.961 656.045C466.704 658.065 472.322 659.958 475.814 661.726C479.307 663.451 482.316 666.355 484.841 670.437C487.366 674.519 488.628 679.211 488.628 684.513C488.628 692.004 485.977 698.19 480.675 703.071C475.415 707.953 468.892 710.393 461.107 710.393C453.111 710.393 445.915 707.511 439.519 701.746V709.005H428.536Z" fill="white"/>
<path d="M517.329 658.57V647.902H525.282V638.497L537.276 627.513V647.902H548.575V658.57H537.276V688.237C537.276 692.993 537.528 695.938 538.033 697.075C538.58 698.169 539.906 698.716 542.01 698.716C544.24 698.716 546.428 698.295 548.575 697.453V708.374C545.503 709.468 542.431 710.015 539.359 710.015C535.698 710.015 532.731 709.215 530.458 707.616C528.186 705.975 526.755 703.934 526.166 701.493C525.577 699.052 525.282 694.844 525.282 688.869V658.57H517.329Z" fill="white"/>
<path d="M653.59 698.337V709.005H630.614V700.041C624.638 706.69 617.358 710.015 608.773 710.015C600.82 710.015 593.834 707.3 587.817 701.872C581.799 696.443 578.79 688.721 578.79 678.706C578.79 668.648 581.883 660.716 588.069 654.909C594.255 649.101 601.241 646.198 609.026 646.198C617.274 646.198 624.47 649.48 630.614 656.045V631.869H618.873V621.201H642.607V698.337H653.59ZM591.604 678.39C591.604 685.123 593.498 690.299 597.285 693.918C601.114 697.537 605.68 699.347 610.983 699.347C616.117 699.347 620.661 697.453 624.617 693.666C628.615 689.837 630.614 684.555 630.614 677.822C630.614 671.047 628.573 665.934 624.491 662.483C620.451 659.033 615.906 657.307 610.856 657.307C605.428 657.307 600.862 659.348 597.159 663.43C593.456 667.47 591.604 672.457 591.604 678.39Z" fill="white"/>
<path d="M686.583 627.135C686.583 625.199 687.257 623.516 688.603 622.085C689.992 620.654 691.738 619.939 693.842 619.939C695.82 619.939 697.525 620.633 698.955 622.022C700.386 623.41 701.102 625.115 701.102 627.135C701.102 629.155 700.386 630.88 698.955 632.311C697.525 633.699 695.82 634.394 693.842 634.394C691.823 634.394 690.097 633.678 688.666 632.248C687.278 630.817 686.583 629.113 686.583 627.135ZM688.288 698.337V658.57H678.756V647.902H700.281V698.337H709.686V709.005H678.756V698.337H688.288Z" fill="white"/>
<path d="M737.945 678.453C737.945 669.027 741.059 661.305 747.287 655.287C753.515 649.228 761.111 646.198 770.074 646.198C778.869 646.198 786.423 649.186 792.735 655.161C799.048 661.095 802.204 668.859 802.204 678.453C802.204 688.048 799.048 695.833 792.735 701.809C786.465 707.784 778.912 710.772 770.074 710.772C760.985 710.772 753.347 707.742 747.161 701.683C741.017 695.623 737.945 687.88 737.945 678.453ZM750.633 678.453C750.633 684.471 752.505 689.416 756.251 693.287C760.038 697.117 764.646 699.031 770.074 699.031C775.587 699.031 780.195 697.096 783.898 693.224C787.643 689.311 789.516 684.387 789.516 678.453C789.516 672.478 787.622 667.554 783.835 663.683C780.048 659.811 775.461 657.875 770.074 657.875C764.435 657.875 759.785 659.853 756.124 663.809C752.463 667.765 750.633 672.646 750.633 678.453Z" fill="white"/>
<path d="M833.114 709.005V688.048H843.845V690.068C844.223 692.93 845.759 695.286 848.453 697.138C851.188 698.989 854.407 699.915 858.11 699.915C861.982 699.915 865.075 699.242 867.389 697.895C869.704 696.549 870.861 694.676 870.861 692.277C870.861 689.963 869.893 688.258 867.957 687.164C866.064 686.07 862.276 685.06 856.595 684.134C848.179 682.704 842.161 680.41 838.542 677.254C834.965 674.056 833.177 669.932 833.177 664.882C833.177 659.79 835.134 655.54 839.047 652.131C842.961 648.681 848.116 646.955 854.512 646.955C860.277 646.955 865.243 648.134 869.409 650.49V647.902H880.077V668.164H869.409V664.44C866.169 659.432 861.456 656.929 855.27 656.929C852.114 656.929 849.505 657.623 847.443 659.012C845.423 660.358 844.413 662.168 844.413 664.44C844.413 666.755 845.338 668.354 847.19 669.238C849.084 670.079 853.124 670.984 859.31 671.952C865.243 672.878 869.725 673.972 872.755 675.234C875.785 676.455 878.288 678.517 880.266 681.42C882.286 684.282 883.296 687.627 883.296 691.457C883.296 697.138 881.108 701.661 876.731 705.028C872.397 708.353 866.758 710.015 859.815 710.015C853.292 710.015 847.969 708.542 843.845 705.596V709.005H833.114Z" fill="white"/>
<path d="M150.821 762.737V743.497H147.574V740.287H167.478V748.016H164.305V743.497H154.695V751.097H162.977V754.307H154.695V762.737H157.978V765.947H147.574V762.737H150.821Z" fill="white"/>
<path d="M195.544 757.904H180.528C180.75 759.552 181.401 760.886 182.484 761.907C183.566 762.927 184.949 763.438 186.634 763.438C189.081 763.438 191.018 762.454 192.445 760.486L195.544 761.851C194.536 763.413 193.226 764.575 191.615 765.338C190.004 766.088 188.319 766.463 186.56 766.463C183.83 766.463 181.494 765.615 179.551 763.917C177.62 762.208 176.654 759.908 176.654 757.018C176.654 754.276 177.595 752.019 179.477 750.248C181.371 748.477 183.541 747.592 185.989 747.592C188.387 747.592 190.557 748.459 192.5 750.193C194.456 751.915 195.47 754.485 195.544 757.904ZM191.928 755.358C191.682 754.104 191.031 752.972 189.973 751.964C188.915 750.943 187.618 750.433 186.081 750.433C184.679 750.433 183.48 750.894 182.484 751.816C181.488 752.726 180.879 753.907 180.657 755.358H191.928Z" fill="white"/>
<path d="M213.648 766.242L208.871 751.208H206.694V748.09H214.22V751.208H211.878L215.29 761.981L218.703 751.208H216.747V748.09H225.381V751.208H223.425L226.838 761.981L230.269 751.208H227.816V748.09H235.877V751.208H233.313L228.517 766.242H225.215L221.119 753.329L216.95 766.242H213.648Z" fill="white"/>
<path d="M265.769 757.904H250.753C250.974 759.552 251.626 760.886 252.708 761.907C253.791 762.927 255.174 763.438 256.859 763.438C259.306 763.438 261.243 762.454 262.67 760.486L265.769 761.851C264.76 763.413 263.451 764.575 261.84 765.338C260.229 766.088 258.544 766.463 256.785 766.463C254.055 766.463 251.718 765.615 249.775 763.917C247.845 762.208 246.879 759.908 246.879 757.018C246.879 754.276 247.82 752.019 249.702 750.248C251.595 748.477 253.766 747.592 256.213 747.592C258.611 747.592 260.782 748.459 262.725 750.193C264.68 751.915 265.695 754.485 265.769 757.904ZM262.153 755.358C261.907 754.104 261.255 752.972 260.198 751.964C259.14 750.943 257.843 750.433 256.306 750.433C254.904 750.433 253.705 750.894 252.708 751.816C251.712 752.726 251.104 753.907 250.882 755.358H262.153Z" fill="white"/>
<path d="M282.176 762.829V751.208H278.579V748.09H284.98V752.112C285.374 751.066 285.921 750.199 286.622 749.511C287.323 748.822 288.061 748.367 288.835 748.145C289.622 747.924 290.692 747.813 292.045 747.813H292.967V751.355H292.266C290.483 751.355 289.149 751.534 288.264 751.89C287.39 752.247 286.739 752.899 286.308 753.846C285.89 754.78 285.681 756.465 285.681 758.9V762.829H289.573V765.947H278.579V762.829H282.176Z" fill="white"/>
<path d="M327.959 762.737V743.497H324.638V740.287H335.135V743.497H331.98V762.737H339.839V754.012H343.454V765.947H324.638V762.737H327.959Z" fill="white"/>
<path d="M374.637 757.904H359.622C359.843 759.552 360.495 760.886 361.577 761.907C362.659 762.927 364.043 763.438 365.728 763.438C368.175 763.438 370.112 762.454 371.538 760.486L374.637 761.851C373.629 763.413 372.319 764.575 370.708 765.338C369.097 766.088 367.412 766.463 365.654 766.463C362.924 766.463 360.587 765.615 358.644 763.917C356.713 762.208 355.748 759.908 355.748 757.018C355.748 754.276 356.689 752.019 358.57 750.248C360.464 748.477 362.635 747.592 365.082 747.592C367.48 747.592 369.651 748.459 371.594 750.193C373.549 751.915 374.564 754.485 374.637 757.904ZM371.022 755.358C370.776 754.104 370.124 752.972 369.066 751.964C368.009 750.943 366.711 750.433 365.174 750.433C363.772 750.433 362.573 750.894 361.577 751.816C360.581 752.726 359.972 753.907 359.751 755.358H371.022Z" fill="white"/>
<path d="M387.761 751.208V748.09H390.085V745.342L393.59 742.132V748.09H396.892V751.208H393.59V759.878C393.59 761.267 393.664 762.128 393.812 762.46C393.971 762.78 394.359 762.94 394.974 762.94C395.626 762.94 396.265 762.817 396.892 762.571V765.762C395.995 766.082 395.097 766.242 394.199 766.242C393.129 766.242 392.262 766.008 391.598 765.541C390.934 765.061 390.516 764.465 390.344 763.751C390.171 763.038 390.085 761.808 390.085 760.062V751.208H387.761Z" fill="white"/>
<path d="M409.739 751.208V748.09H412.064V745.342L415.569 742.132V748.09H418.871V751.208H415.569V759.878C415.569 761.267 415.642 762.128 415.79 762.46C415.95 762.78 416.337 762.94 416.952 762.94C417.604 762.94 418.243 762.817 418.871 762.571V765.762C417.973 766.082 417.075 766.242 416.177 766.242C415.107 766.242 414.24 766.008 413.576 765.541C412.912 765.061 412.494 764.465 412.322 763.751C412.15 763.038 412.064 761.808 412.064 760.062V751.208H409.739Z" fill="white"/>
<path d="M450.828 757.904H435.813C436.034 759.552 436.686 760.886 437.768 761.907C438.85 762.927 440.234 763.438 441.919 763.438C444.366 763.438 446.303 762.454 447.729 760.486L450.828 761.851C449.82 763.413 448.51 764.575 446.899 765.338C445.288 766.088 443.603 766.463 441.845 766.463C439.115 766.463 436.778 765.615 434.835 763.917C432.904 762.208 431.939 759.908 431.939 757.018C431.939 754.276 432.88 752.019 434.761 750.248C436.655 748.477 438.826 747.592 441.273 747.592C443.671 747.592 445.842 748.459 447.785 750.193C449.74 751.915 450.755 754.485 450.828 757.904ZM447.213 755.358C446.967 754.104 446.315 752.972 445.258 751.964C444.2 750.943 442.902 750.433 441.365 750.433C439.963 750.433 438.764 750.894 437.768 751.816C436.772 752.726 436.163 753.907 435.942 755.358H447.213Z" fill="white"/>
<path d="M467.236 762.829V751.208H463.639V748.09H470.04V752.112C470.433 751.066 470.98 750.199 471.681 749.511C472.382 748.822 473.12 748.367 473.895 748.145C474.682 747.924 475.752 747.813 477.105 747.813H478.027V751.355H477.326C475.543 751.355 474.209 751.534 473.323 751.89C472.45 752.247 471.798 752.899 471.368 753.846C470.95 754.78 470.741 756.465 470.741 758.9V762.829H474.633V765.947H463.639V762.829H467.236Z" fill="white"/>
<path d="M490.69 765.947V759.822H493.826V760.413C493.936 761.249 494.385 761.937 495.172 762.479C495.972 763.02 496.912 763.29 497.995 763.29C499.126 763.29 500.03 763.093 500.706 762.7C501.383 762.306 501.721 761.759 501.721 761.058C501.721 760.382 501.438 759.884 500.872 759.564C500.319 759.244 499.212 758.949 497.552 758.679C495.092 758.26 493.334 757.59 492.276 756.668C491.231 755.733 490.708 754.528 490.708 753.052C490.708 751.564 491.28 750.322 492.424 749.326C493.567 748.318 495.074 747.813 496.943 747.813C498.628 747.813 500.079 748.158 501.297 748.846V748.09H504.414V754.012H501.297V752.923C500.35 751.46 498.972 750.728 497.165 750.728C496.242 750.728 495.48 750.931 494.877 751.337C494.287 751.73 493.992 752.259 493.992 752.923C493.992 753.6 494.262 754.067 494.803 754.325C495.357 754.571 496.537 754.835 498.345 755.118C500.079 755.389 501.389 755.709 502.274 756.078C503.16 756.434 503.892 757.037 504.47 757.885C505.06 758.722 505.355 759.699 505.355 760.818C505.355 762.479 504.715 763.801 503.436 764.784C502.17 765.756 500.522 766.242 498.493 766.242C496.587 766.242 495.031 765.811 493.826 764.95V765.947H490.69Z" fill="white"/>
<path d="M520.268 765.947V761.409H524.806V765.356C524.806 766.697 524.702 767.736 524.492 768.474C524.283 769.212 523.835 769.814 523.146 770.282C522.469 770.761 521.51 771.019 520.268 771.056V769.138C521.744 768.917 522.482 768 522.482 766.389C522.482 766.291 522.476 766.143 522.463 765.947H520.268Z" fill="white"/>
<path d="M559.631 762.737V743.497H556.551V740.287H565.331L572.083 757.867L578.908 740.287H587.781V743.497H584.682V762.737H587.781V765.947H578.115V762.737H581.177V743.497L572.323 766.205H571.566L562.804 743.497V762.737H565.627V765.947H556.551V762.737H559.631Z" fill="white"/>
<path d="M600.702 757.018C600.702 754.264 601.612 752.007 603.432 750.248C605.252 748.477 607.472 747.592 610.091 747.592C612.662 747.592 614.869 748.465 616.714 750.211C618.559 751.945 619.481 754.214 619.481 757.018C619.481 759.822 618.559 762.097 616.714 763.844C614.881 765.59 612.674 766.463 610.091 766.463C607.435 766.463 605.203 765.578 603.395 763.807C601.6 762.036 600.702 759.773 600.702 757.018ZM604.41 757.018C604.41 758.777 604.957 760.222 606.052 761.353C607.158 762.472 608.505 763.032 610.091 763.032C611.702 763.032 613.049 762.466 614.131 761.335C615.226 760.191 615.773 758.752 615.773 757.018C615.773 755.272 615.22 753.833 614.113 752.702C613.006 751.57 611.666 751.005 610.091 751.005C608.444 751.005 607.085 751.583 606.015 752.739C604.945 753.895 604.41 755.321 604.41 757.018Z" fill="white"/>
<path d="M635.925 762.829V751.208H632.328V748.09H638.729V752.112C639.123 751.066 639.67 750.199 640.371 749.511C641.072 748.822 641.81 748.367 642.584 748.145C643.371 747.924 644.441 747.813 645.794 747.813H646.716V751.355H646.016C644.232 751.355 642.898 751.534 642.013 751.89C641.139 752.247 640.488 752.899 640.057 753.846C639.639 754.78 639.43 756.465 639.43 758.9V762.829H643.322V765.947H632.328V762.829H635.925Z" fill="white"/>
<path d="M676.203 757.904H661.187C661.408 759.552 662.06 760.886 663.142 761.907C664.224 762.927 665.608 763.438 667.293 763.438C669.74 763.438 671.677 762.454 673.104 760.486L676.203 761.851C675.194 763.413 673.884 764.575 672.273 765.338C670.662 766.088 668.978 766.463 667.219 766.463C664.489 766.463 662.152 765.615 660.209 763.917C658.278 762.208 657.313 759.908 657.313 757.018C657.313 754.276 658.254 752.019 660.135 750.248C662.029 748.477 664.2 747.592 666.647 747.592C669.045 747.592 671.216 748.459 673.159 750.193C675.114 751.915 676.129 754.485 676.203 757.904ZM672.587 755.358C672.341 754.104 671.689 752.972 670.632 751.964C669.574 750.943 668.277 750.433 666.739 750.433C665.337 750.433 664.138 750.894 663.142 751.816C662.146 752.726 661.537 753.907 661.316 755.358H672.587Z" fill="white"/>
<path d="M712.172 762.737V743.497H709.386V740.287H718.831V743.497H716.045V762.737H718.831V765.947H709.386V762.737H712.172Z" fill="white"/>
<path d="M734.814 762.829V751.208H731.844V748.09H738.319V750.341C740.434 748.656 742.506 747.813 744.535 747.813C746.577 747.813 747.985 748.742 748.76 750.599C751.084 748.742 753.248 747.813 755.253 747.813C756.409 747.813 757.356 748.072 758.094 748.588C758.844 749.092 759.348 749.738 759.606 750.525C759.865 751.3 759.994 752.45 759.994 753.975V762.829H763.111V765.947H756.489V754.602C756.489 753.569 756.44 752.843 756.341 752.425C756.255 751.995 756.022 751.644 755.64 751.374C755.271 751.091 754.823 750.949 754.294 750.949C752.793 750.949 751.09 751.718 749.184 753.255V762.829H752.246V765.947H745.679V754.27C745.679 753.101 745.507 752.259 745.163 751.743C744.831 751.214 744.259 750.949 743.447 750.949C742.119 750.949 740.409 751.718 738.319 753.255V762.829H741.455V765.947H731.623V762.829H734.814Z" fill="white"/>
<path d="M777.416 770.835V751.208H774.409V748.09H780.921V750.894C782.667 748.84 784.782 747.813 787.266 747.813C789.775 747.813 791.847 748.674 793.483 750.396C795.131 752.118 795.955 754.356 795.955 757.111C795.955 760.001 795.063 762.282 793.28 763.954C791.497 765.627 789.468 766.463 787.193 766.463C784.831 766.463 782.741 765.553 780.921 763.733V770.835H784.389V773.953H774.151V770.835H777.416ZM780.865 757.277C780.865 758.26 781.068 759.201 781.474 760.099C781.88 760.997 782.525 761.753 783.411 762.368C784.296 762.971 785.336 763.272 786.528 763.272C788.201 763.272 789.578 762.712 790.661 761.593C791.755 760.474 792.302 758.937 792.302 756.981C792.302 755.075 791.73 753.587 790.587 752.517C789.455 751.447 788.164 750.912 786.713 750.912C785.163 750.912 783.798 751.497 782.618 752.665C781.449 753.821 780.865 755.358 780.865 757.277Z" fill="white"/>
<path d="M827.654 762.829V765.947H821.53V763.77C819.833 765.418 817.939 766.242 815.849 766.242C814.225 766.242 812.811 765.713 811.606 764.655C810.413 763.598 809.816 762.245 809.816 760.597C809.816 758.937 810.45 757.559 811.716 756.465C812.995 755.37 814.533 754.823 816.328 754.823C818.001 754.823 819.618 755.327 821.18 756.336V754.565C821.18 753.655 821.094 752.954 820.921 752.462C820.749 751.97 820.343 751.527 819.704 751.134C819.077 750.74 818.253 750.544 817.232 750.544C815.473 750.544 814.201 751.245 813.414 752.646L810.056 751.761C811.544 748.982 814.115 747.592 817.767 747.592C819.107 747.592 820.263 747.777 821.235 748.145C822.219 748.502 822.951 748.969 823.43 749.547C823.91 750.113 824.229 750.728 824.389 751.392C824.562 752.056 824.648 753.114 824.648 754.565V762.829H827.654ZM821.18 759.306C819.667 758.125 818.136 757.535 816.586 757.535C815.615 757.535 814.803 757.818 814.151 758.383C813.5 758.949 813.174 759.681 813.174 760.579C813.174 761.415 813.457 762.116 814.022 762.682C814.6 763.247 815.381 763.53 816.365 763.53C818.062 763.53 819.667 762.817 821.18 761.39V759.306Z" fill="white"/>
<path d="M856.993 748.09V754.842H853.857C853.697 753.55 853.168 752.56 852.271 751.872C851.385 751.183 850.352 750.839 849.172 750.839C847.597 750.839 846.318 751.398 845.335 752.517C844.351 753.624 843.859 755.081 843.859 756.889C843.859 758.574 844.326 760.062 845.261 761.353C846.195 762.632 847.548 763.272 849.319 763.272C851.779 763.272 853.562 762.104 854.669 759.767L857.565 761.132C855.966 764.686 853.168 766.463 849.172 766.463C846.343 766.463 844.117 765.498 842.494 763.567C840.87 761.636 840.059 759.41 840.059 756.889C840.059 754.196 840.944 751.976 842.715 750.23C844.486 748.471 846.527 747.592 848.839 747.592C850.819 747.592 852.492 748.176 853.857 749.344V748.09H856.993Z" fill="white"/>
<path d="M870.154 751.208V748.09H872.478V745.342L875.983 742.132V748.09H879.285V751.208H875.983V759.878C875.983 761.267 876.057 762.128 876.204 762.46C876.364 762.78 876.751 762.94 877.366 762.94C878.018 762.94 878.658 762.817 879.285 762.571V765.762C878.387 766.082 877.489 766.242 876.592 766.242C875.522 766.242 874.655 766.008 873.991 765.541C873.326 765.061 872.908 764.465 872.736 763.751C872.564 763.038 872.478 761.808 872.478 760.062V751.208H870.154Z" fill="white"/>
</svg>
