<svg width="124" height="33" viewBox="0 0 124 33" fill="none" xmlns="http://www.w3.org/2000/svg">
<path d="M112.906 19.8252V15.2845H115.231V15.7222C115.313 16.3422 115.646 16.8528 116.23 17.254C116.822 17.6552 117.52 17.8558 118.322 17.8558C119.161 17.8558 119.831 17.7099 120.333 17.4181C120.834 17.1263 121.085 16.7206 121.085 16.2009C121.085 15.6994 120.875 15.3301 120.456 15.093C120.046 14.856 119.225 14.6371 117.994 14.4365C116.17 14.1265 114.867 13.6296 114.082 12.9458C113.307 12.2528 112.92 11.3592 112.92 10.2651C112.92 9.16182 113.344 8.24091 114.192 7.50236C115.04 6.75469 116.157 6.38086 117.543 6.38086C118.792 6.38086 119.868 6.63616 120.77 7.14676V6.58601H123.082V10.9763H120.77V10.1694C120.068 9.08432 119.047 8.54181 117.707 8.54181C117.023 8.54181 116.458 8.69225 116.011 8.99314C115.573 9.28492 115.354 9.67699 115.354 10.1694C115.354 10.6708 115.555 11.0173 115.956 11.2088C116.366 11.3912 117.242 11.5872 118.582 11.7969C119.868 11.9975 120.839 12.2346 121.495 12.5081C122.152 12.7725 122.694 13.2193 123.123 13.8484C123.561 14.4685 123.779 15.1933 123.779 16.0231C123.779 17.254 123.305 18.2341 122.357 18.9636C121.418 19.6839 120.196 20.0441 118.692 20.0441C117.278 20.0441 116.125 19.7249 115.231 19.0867V19.8252H112.906Z" fill="white"/>
<path d="M96.7676 13.2057C96.7676 11.1633 97.4423 9.49013 98.7918 8.18627C100.141 6.87329 101.787 6.2168 103.729 6.2168C105.635 6.2168 107.271 6.86417 108.639 8.15891C110.007 9.44454 110.691 11.1268 110.691 13.2057C110.691 15.2846 110.007 16.9714 108.639 18.2661C107.281 19.5609 105.644 20.2082 103.729 20.2082C101.76 20.2082 100.105 19.5517 98.7644 18.2388C97.4332 16.9258 96.7676 15.2481 96.7676 13.2057ZM99.5166 13.2057C99.5166 14.5095 99.9224 15.5809 100.734 16.4197C101.554 17.2495 102.553 17.6643 103.729 17.6643C104.924 17.6643 105.922 17.2449 106.724 16.4061C107.536 15.5581 107.942 14.4913 107.942 13.2057C107.942 11.9109 107.531 10.8441 106.711 10.0053C105.89 9.16644 104.896 8.74702 103.729 8.74702C102.507 8.74702 101.5 9.17556 100.707 10.0326C99.9133 10.8897 99.5166 11.9474 99.5166 13.2057Z" fill="white"/>
<path d="M90.1198 2.08651C90.1198 1.66708 90.2656 1.30237 90.5574 0.992357C90.8583 0.682348 91.2367 0.527344 91.6926 0.527344C92.1211 0.527344 92.4904 0.677789 92.8004 0.978681C93.1104 1.27957 93.2654 1.64885 93.2654 2.08651C93.2654 2.52417 93.1104 2.898 92.8004 3.20801C92.4904 3.5089 92.1211 3.65935 91.6926 3.65935C91.2549 3.65935 90.8811 3.50434 90.5711 3.19433C90.2702 2.88433 90.1198 2.51505 90.1198 2.08651ZM90.489 17.514V8.89759H88.4238V6.5862H93.0876V17.514H95.1255V19.8254H88.4238V17.514H90.489Z" fill="white"/>
<path d="M87.4532 17.5139V19.8253H82.4748V17.8832C81.1801 19.3238 79.6027 20.0441 77.7426 20.0441C76.0193 20.0441 74.5057 19.456 73.2019 18.2798C71.898 17.1036 71.2461 15.4305 71.2461 13.2604C71.2461 11.0812 71.9163 9.3625 73.2566 8.10423C74.5969 6.84596 76.1105 6.21682 77.7973 6.21682C79.5844 6.21682 81.1436 6.92802 82.4748 8.35042V3.11217H79.9309V0.800781H85.0734V17.5139H87.4532ZM74.0225 13.192C74.0225 14.6509 74.4328 15.7724 75.2534 16.5565C76.0831 17.3407 77.0724 17.7327 78.2213 17.7327C79.3337 17.7327 80.3184 17.3224 81.1755 16.5018C82.0417 15.6721 82.4748 14.5278 82.4748 13.0689C82.4748 11.601 82.0326 10.4931 81.1482 9.74546C80.2728 8.99779 79.2881 8.62395 78.1939 8.62395C77.0177 8.62395 76.0284 9.06617 75.2261 9.95061C74.4237 10.8259 74.0225 11.9064 74.0225 13.192Z" fill="white"/>
<path d="M62.4102 8.89699V6.5856H64.1334V4.54774L66.732 2.16797V6.5856H69.1802V8.89699H66.732V15.3251C66.732 16.3554 66.7868 16.9937 66.8962 17.2399C67.0147 17.4769 67.3019 17.5955 67.7578 17.5955C68.2411 17.5955 68.7152 17.5043 69.1802 17.3219V19.688C68.5146 19.9251 67.849 20.0436 67.1834 20.0436C66.3901 20.0436 65.7473 19.8704 65.2549 19.5239C64.7626 19.1683 64.4526 18.7261 64.3249 18.1973C64.1973 17.6684 64.1334 16.7566 64.1334 15.4619V8.89699H62.4102Z" fill="white"/>
<path d="M47.6524 19.8254V12.9186H50.0321V14.6009C51.1719 16.6706 52.6627 17.7055 54.5045 17.7055C55.4436 17.7055 56.2369 17.4183 56.8843 16.8439C57.5316 16.2694 57.8553 15.5172 57.8553 14.5872C57.8553 13.6845 57.5909 13.0371 57.0621 12.6451C56.5332 12.2439 55.5348 11.8472 54.0668 11.4552C52.3618 10.9993 51.0989 10.5707 50.2783 10.1695C49.4577 9.75924 48.8012 9.18026 48.3089 8.43259C47.8256 7.6758 47.584 6.78224 47.584 5.75192C47.584 4.15628 48.1128 2.88434 49.1705 1.93607C50.2373 0.978691 51.5731 0.5 53.1778 0.5C54.7005 0.5 56.1138 0.992367 57.4177 1.9771V0.705153H59.7427V6.47679H57.4177V5.15014C56.442 3.68215 55.0971 2.94816 53.383 2.94816C52.3435 2.94816 51.5457 3.18979 50.9895 3.67303C50.4333 4.14717 50.1552 4.71704 50.1552 5.38264C50.1552 5.89325 50.2966 6.34458 50.5792 6.73665C50.8619 7.11961 51.222 7.40226 51.6597 7.58462C52.0974 7.76698 52.959 8.02228 54.2446 8.35053C55.9223 8.78819 57.1396 9.19849 57.8963 9.58144C58.6531 9.95528 59.3051 10.5844 59.8521 11.4689C60.3992 12.3533 60.6728 13.3699 60.6728 14.5188C60.6728 16.1418 60.0983 17.4821 58.9495 18.5398C57.8097 19.5975 56.3965 20.1263 54.7096 20.1263C52.9772 20.1263 51.4181 19.5017 50.0321 18.2526V19.8254H47.6524Z" fill="white"/>
<path d="M32.082 10.8915L36.8269 13.6335V6.4868C34.635 7.07465 32.8336 8.74585 32.082 10.8915Z" fill="#E9480E"/>
<path d="M33.3668 17.7046L38.1117 14.9627L31.9265 11.3935C31.7712 11.9814 31.6914 12.5818 31.6914 13.1865C31.6914 14.8493 32.2877 16.4491 33.3668 17.7046Z" fill="#E9480E"/>
<path d="M38.6239 6.25391C38.1914 6.25391 37.7589 6.2959 37.339 6.37148V11.8554L43.5242 8.28622C42.2141 6.97193 40.4799 6.25391 38.6239 6.25391Z" fill="#E9480E"/>
<path d="M38.624 20.1202C39.0565 20.1202 39.489 20.0782 39.9089 20.0027V14.5188L33.7238 18.0879C35.0338 19.4022 36.768 20.1202 38.624 20.1202Z" fill="#E9480E"/>
<path d="M43.8813 8.66946L39.1364 11.4114L45.3215 14.9847C45.4769 14.4011 45.5567 13.7964 45.5567 13.1918C45.5567 11.529 44.9646 9.92496 43.8813 8.66946Z" fill="#E9480E"/>
<path d="M45.166 15.4791L40.4211 12.7372V19.8797C42.613 19.296 44.4144 17.6248 45.166 15.4791Z" fill="#E9480E"/>
<path d="M28.1362 16.7753V19.8252H18.8223V16.7753H21.2704V9.64963H18.9727V6.58601H25.141V9.95052C25.378 8.98402 25.916 8.14973 26.7549 7.44766C27.6028 6.73646 28.6012 6.38086 29.7501 6.38086C29.9416 6.38086 30.1695 6.38542 30.4339 6.39454V10.3882C29.3671 10.3882 28.4964 10.5067 27.8216 10.7438C27.1469 10.9808 26.5907 11.5006 26.1531 12.3029C25.7154 13.1053 25.4966 14.0536 25.4966 15.1477V16.7753H28.1362Z" fill="white"/>
<path d="M10.2478 16.6112V19.8253H0.222656V16.6112H2.64346V4.01485H0.222656V0.800781H10.2478C12.582 0.800781 14.3828 1.34786 15.6502 2.44201C16.9267 3.53616 17.5649 5.0087 17.5649 6.85964C17.5649 7.91731 17.3415 8.87925 16.8948 9.74546C16.448 10.6025 15.8736 11.2636 15.1715 11.7286C14.4785 12.1845 13.6807 12.4991 12.778 12.6723C11.8845 12.8364 10.763 12.9185 9.41352 12.9185H7.59449V16.6112H10.2478ZM7.59449 9.74546H8.33304C10.029 9.74546 11.1186 9.47192 11.6018 8.92484C12.0942 8.36865 12.3404 7.68025 12.3404 6.85964C12.3404 6.16667 12.1717 5.57857 11.8343 5.09532C11.497 4.60295 11.1094 4.30206 10.6718 4.19265C10.2341 4.07411 9.51837 4.01485 8.52452 4.01485H7.59449V9.74546Z" fill="white"/>
<path d="M0.867767 30.2713V26.4483H0.222656V25.8105H4.17763V27.3464H3.54718V26.4483H1.6375V27.9585H3.28327V28.5963H1.6375V30.2713H2.28994V30.9091H0.222656V30.2713H0.867767Z" fill="white"/>
<path d="M8.85351 29.311H5.86987C5.91385 29.6384 6.04336 29.9036 6.2584 30.1064C6.47344 30.3092 6.74834 30.4106 7.08312 30.4106C7.56939 30.4106 7.95426 30.2151 8.23772 29.8242L8.85351 30.0954C8.65313 30.4057 8.39289 30.6367 8.07277 30.7882C7.75266 30.9372 7.41789 31.0118 7.06845 31.0118C6.52598 31.0118 6.06169 30.8431 5.6756 30.5059C5.29196 30.1663 5.10013 29.7093 5.10013 29.1351C5.10013 28.5901 5.28707 28.1417 5.66094 27.7899C6.03725 27.438 6.46855 27.262 6.95483 27.262C7.43133 27.262 7.86263 27.4343 8.24871 27.7789C8.63725 28.121 8.83884 28.6317 8.85351 29.311ZM8.13509 28.8052C8.08622 28.5559 7.9567 28.3311 7.74655 28.1307C7.5364 27.9279 7.2786 27.8265 6.97315 27.8265C6.69458 27.8265 6.45633 27.9182 6.2584 28.1014C6.06047 28.2822 5.93951 28.5168 5.89553 28.8052H8.13509Z" fill="white"/>
<path d="M11.5501 30.9678L10.6007 27.9805H10.1682V27.361H11.6637V27.9805H11.1982L11.8763 30.1211L12.5544 27.9805H12.1659V27.361H13.8813V27.9805H13.4927L14.1708 30.1211L14.8526 27.9805H14.3651V27.361H15.9669V27.9805H15.4574L14.5044 30.9678H13.8483L13.0346 28.402L12.2062 30.9678H11.5501Z" fill="white"/>
<path d="M21.0056 29.311H18.022C18.066 29.6384 18.1955 29.9036 18.4105 30.1064C18.6256 30.3092 18.9005 30.4106 19.2352 30.4106C19.7215 30.4106 20.1064 30.2151 20.3898 29.8242L21.0056 30.0954C20.8053 30.4057 20.545 30.6367 20.2249 30.7882C19.9048 30.9372 19.57 31.0118 19.2206 31.0118C18.6781 31.0118 18.2138 30.8431 17.8277 30.5059C17.4441 30.1663 17.2523 29.7093 17.2523 29.1351C17.2523 28.5901 17.4392 28.1417 17.8131 27.7899C18.1894 27.438 18.6207 27.262 19.107 27.262C19.5835 27.262 20.0148 27.4343 20.4008 27.7789C20.7894 28.121 20.991 28.6317 21.0056 29.311ZM20.2872 28.8052C20.2383 28.5559 20.1088 28.3311 19.8987 28.1307C19.6885 27.9279 19.4307 27.8265 19.1253 27.8265C18.8467 27.8265 18.6085 27.9182 18.4105 28.1014C18.2126 28.2822 18.0916 28.5168 18.0477 28.8052H20.2872Z" fill="white"/>
<path d="M23.365 30.2897V27.9805H22.6502V27.361H23.9221V28.1601C24.0003 27.9524 24.1091 27.7801 24.2483 27.6432C24.3876 27.5064 24.5342 27.416 24.6882 27.372C24.8446 27.328 25.0572 27.306 25.326 27.306H25.5092V28.0098H25.37C25.0156 28.0098 24.7505 28.0452 24.5746 28.1161C24.4011 28.1869 24.2716 28.3165 24.186 28.5046C24.1029 28.6903 24.0614 29.0251 24.0614 29.5089V30.2897H24.8348V30.9091H22.6502V30.2897H23.365Z" fill="white"/>
<path d="M30.6604 30.2713V26.4483H30.0007V25.8105H32.0863V26.4483H31.4595V30.2713H33.021V28.5376H33.7394V30.9091H30.0007V30.2713H30.6604Z" fill="white"/>
<path d="M39.0347 29.311H36.0511C36.0951 29.6384 36.2246 29.9036 36.4396 30.1064C36.6547 30.3092 36.9296 30.4106 37.2643 30.4106C37.7506 30.4106 38.1355 30.2151 38.4189 29.8242L39.0347 30.0954C38.8343 30.4057 38.5741 30.6367 38.254 30.7882C37.9339 30.9372 37.5991 31.0118 37.2497 31.0118C36.7072 31.0118 36.2429 30.8431 35.8568 30.5059C35.4732 30.1663 35.2813 29.7093 35.2813 29.1351C35.2813 28.5901 35.4683 28.1417 35.8422 27.7899C36.2185 27.438 36.6498 27.262 37.136 27.262C37.6125 27.262 38.0438 27.4343 38.4299 27.7789C38.8185 28.121 39.0201 28.6317 39.0347 29.311ZM38.3163 28.8052C38.2674 28.5559 38.1379 28.3311 37.9278 28.1307C37.7176 27.9279 37.4598 27.8265 37.1544 27.8265C36.8758 27.8265 36.6376 27.9182 36.4396 28.1014C36.2417 28.2822 36.1207 28.5168 36.0767 28.8052H38.3163Z" fill="white"/>
<path d="M40.7416 27.9805V27.361H41.2035V26.8149L41.8999 26.1771V27.361H42.556V27.9805H41.8999V29.7032C41.8999 29.9793 41.9146 30.1504 41.9439 30.2164C41.9756 30.2799 42.0526 30.3117 42.1748 30.3117C42.3043 30.3117 42.4314 30.2872 42.556 30.2384V30.8725C42.3776 30.936 42.1992 30.9678 42.0209 30.9678C41.8083 30.9678 41.636 30.9213 41.504 30.8285C41.3721 30.7332 41.289 30.6147 41.2548 30.4729C41.2206 30.3312 41.2035 30.0868 41.2035 29.7399V27.9805H40.7416Z" fill="white"/>
<path d="M44.2079 27.9805V27.361H44.6698V26.8149L45.3662 26.1771V27.361H46.0223V27.9805H45.3662V29.7032C45.3662 29.9793 45.3809 30.1504 45.4102 30.2164C45.4419 30.2799 45.5189 30.3117 45.6411 30.3117C45.7706 30.3117 45.8977 30.2872 46.0223 30.2384V30.8725C45.8439 30.936 45.6655 30.9678 45.4871 30.9678C45.2746 30.9678 45.1023 30.9213 44.9703 30.8285C44.8384 30.7332 44.7553 30.6147 44.7211 30.4729C44.6869 30.3312 44.6698 30.0868 44.6698 29.7399V27.9805H44.2079Z" fill="white"/>
<path d="M51.4716 29.311H48.4879C48.5319 29.6384 48.6614 29.9036 48.8765 30.1064C49.0915 30.3092 49.3664 30.4106 49.7012 30.4106C50.1875 30.4106 50.5723 30.2151 50.8558 29.8242L51.4716 30.0954C51.2712 30.4057 51.011 30.6367 50.6908 30.7882C50.3707 30.9372 50.036 31.0118 49.6865 31.0118C49.144 31.0118 48.6798 30.8431 48.2937 30.5059C47.91 30.1663 47.7182 29.7093 47.7182 29.1351C47.7182 28.5901 47.9051 28.1417 48.279 27.7899C48.6553 27.438 49.0866 27.262 49.5729 27.262C50.0494 27.262 50.4807 27.4343 50.8668 27.7789C51.2553 28.121 51.4569 28.6317 51.4716 29.311ZM50.7532 28.8052C50.7043 28.5559 50.5748 28.3311 50.3646 28.1307C50.1545 27.9279 49.8967 27.8265 49.5912 27.8265C49.3127 27.8265 49.0744 27.9182 48.8765 28.1014C48.6785 28.2822 48.5576 28.5168 48.5136 28.8052H50.7532Z" fill="white"/>
<path d="M53.8309 30.2897V27.9805H53.1162V27.361H54.3881V28.1601C54.4663 27.9524 54.575 27.7801 54.7143 27.6432C54.8536 27.5064 55.0002 27.416 55.1541 27.372C55.3105 27.328 55.5231 27.306 55.7919 27.306H55.9752V28.0098H55.8359C55.4816 28.0098 55.2164 28.0452 55.0405 28.1161C54.867 28.1869 54.7375 28.3165 54.652 28.5046C54.5689 28.6903 54.5274 29.0251 54.5274 29.5089V30.2897H55.3008V30.9091H53.1162V30.2897H53.8309Z" fill="white"/>
<path d="M57.5905 30.9091V29.6922H58.2136V29.8095C58.2356 29.9757 58.3248 30.1125 58.4811 30.22C58.64 30.3275 58.8269 30.3813 59.042 30.3813C59.2668 30.3813 59.4464 30.3422 59.5808 30.264C59.7152 30.1858 59.7824 30.0771 59.7824 29.9378C59.7824 29.8034 59.7262 29.7044 59.6138 29.6409C59.5038 29.5774 59.2839 29.5187 58.954 29.465C58.4653 29.3819 58.1158 29.2487 57.9057 29.0654C57.698 28.8797 57.5941 28.6402 57.5941 28.347C57.5941 28.0513 57.7077 27.8045 57.935 27.6066C58.1623 27.4062 58.4616 27.306 58.833 27.306C59.1678 27.306 59.4561 27.3745 59.6981 27.5113V27.361H60.3175V28.5376H59.6981V28.3213C59.5099 28.0306 59.2362 27.8852 58.877 27.8852C58.6937 27.8852 58.5422 27.9255 58.4225 28.0061C58.3052 28.0843 58.2466 28.1894 58.2466 28.3213C58.2466 28.4557 58.3003 28.5486 58.4078 28.5999C58.5178 28.6488 58.7524 28.7013 59.1116 28.7575C59.4561 28.8113 59.7164 28.8748 59.8923 28.9481C60.0683 29.019 60.2137 29.1387 60.3285 29.3073C60.4458 29.4735 60.5044 29.6678 60.5044 29.8901C60.5044 30.22 60.3774 30.4827 60.1232 30.6782C59.8716 30.8712 59.5441 30.9678 59.1409 30.9678C58.7622 30.9678 58.453 30.8822 58.2136 30.7112V30.9091H57.5905Z" fill="white"/>
<path d="M62.5669 30.9091V30.0074H63.4686V30.7918C63.4686 31.0582 63.4478 31.2647 63.4063 31.4113C63.3647 31.5579 63.2755 31.6776 63.1387 31.7705C63.0043 31.8658 62.8137 31.9171 62.5669 31.9244V31.5432C62.8601 31.4993 63.0067 31.3172 63.0067 30.9971C63.0067 30.9775 63.0055 30.9482 63.0031 30.9091H62.5669Z" fill="white"/>
<path d="M68.5868 30.2713V26.4483H67.9747V25.8105H69.7194L71.061 29.3037L72.4172 25.8105H74.1802V26.4483H73.5644V30.2713H74.1802V30.9091H72.2595V30.2713H72.868V26.4483L71.1086 30.9604H70.9583L69.2173 26.4483V30.2713H69.7781V30.9091H67.9747V30.2713H68.5868Z" fill="white"/>
<path d="M75.8468 29.1351C75.8468 28.5877 76.0276 28.1393 76.3893 27.7899C76.7509 27.438 77.192 27.262 77.7125 27.262C78.2232 27.262 78.6618 27.4355 79.0284 27.7825C79.3949 28.1271 79.5782 28.5779 79.5782 29.1351C79.5782 29.6922 79.3949 30.1443 79.0284 30.4913C78.6643 30.8383 78.2256 31.0118 77.7125 31.0118C77.1847 31.0118 76.7412 30.8358 76.3819 30.4839C76.0252 30.1321 75.8468 29.6824 75.8468 29.1351ZM76.5835 29.1351C76.5835 29.4845 76.6923 29.7716 76.9098 29.9964C77.1297 30.2188 77.3973 30.33 77.7125 30.33C78.0326 30.33 78.3002 30.2176 78.5152 29.9928C78.7327 29.7655 78.8414 29.4796 78.8414 29.1351C78.8414 28.7881 78.7315 28.5022 78.5115 28.2774C78.2916 28.0526 78.0253 27.9401 77.7125 27.9401C77.385 27.9401 77.115 28.055 76.9024 28.2847C76.6898 28.5144 76.5835 28.7978 76.5835 29.1351Z" fill="white"/>
<path d="M81.9448 30.2897V27.9805H81.2301V27.361H82.502V28.1601C82.5802 27.9524 82.6889 27.7801 82.8282 27.6432C82.9675 27.5064 83.1141 27.416 83.2681 27.372C83.4245 27.328 83.637 27.306 83.9058 27.306H84.0891V28.0098H83.9498C83.5955 28.0098 83.3304 28.0452 83.1544 28.1161C82.9809 28.1869 82.8514 28.3165 82.7659 28.5046C82.6828 28.6903 82.6413 29.0251 82.6413 29.5089V30.2897H83.4147V30.9091H81.2301V30.2897H81.9448Z" fill="white"/>
<path d="M89.0472 29.311H86.0636C86.1076 29.6384 86.2371 29.9036 86.4521 30.1064C86.6672 30.3092 86.9421 30.4106 87.2768 30.4106C87.7631 30.4106 88.148 30.2151 88.4314 29.8242L89.0472 30.0954C88.8469 30.4057 88.5866 30.6367 88.2665 30.7882C87.9464 30.9372 87.6116 31.0118 87.2622 31.0118C86.7197 31.0118 86.2554 30.8431 85.8693 30.5059C85.4857 30.1663 85.2939 29.7093 85.2939 29.1351C85.2939 28.5901 85.4808 28.1417 85.8547 27.7899C86.231 27.438 86.6623 27.262 87.1486 27.262C87.6251 27.262 88.0564 27.4343 88.4424 27.7789C88.831 28.121 89.0326 28.6317 89.0472 29.311ZM88.3288 28.8052C88.2799 28.5559 88.1504 28.3311 87.9403 28.1307C87.7301 27.9279 87.4723 27.8265 87.1669 27.8265C86.8883 27.8265 86.6501 27.9182 86.4521 28.1014C86.2542 28.2822 86.1332 28.5168 86.0892 28.8052H88.3288Z" fill="white"/>
<path d="M94.3927 30.2713V26.4483H93.8392V25.8105H95.7159V26.4483H95.1624V30.2713H95.7159V30.9091H93.8392V30.2713H94.3927Z" fill="white"/>
<path d="M97.991 30.2897V27.9805H97.4008V27.361H98.6874V27.8082C99.1077 27.4734 99.5194 27.306 99.9226 27.306C100.328 27.306 100.608 27.4905 100.762 27.8595C101.224 27.4905 101.654 27.306 102.052 27.306C102.282 27.306 102.47 27.3573 102.617 27.46C102.766 27.5602 102.866 27.6885 102.917 27.8448C102.969 27.9988 102.994 28.2273 102.994 28.5303V30.2897H103.614V30.9091H102.298V28.6549C102.298 28.4496 102.288 28.3055 102.268 28.2224C102.251 28.1369 102.205 28.0672 102.129 28.0135C102.056 27.9573 101.967 27.9291 101.862 27.9291C101.563 27.9291 101.225 28.0819 100.846 28.3873V30.2897H101.455V30.9091H100.15V28.5889C100.15 28.3568 100.116 28.1894 100.047 28.0868C99.9813 27.9817 99.8676 27.9291 99.7064 27.9291C99.4425 27.9291 99.1028 28.0819 98.6874 28.3873V30.2897H99.3105V30.9091H97.3568V30.2897H97.991Z" fill="white"/>
<path d="M105.555 31.8805V27.9805H104.958V27.361H106.252V27.9182C106.599 27.5101 107.019 27.306 107.513 27.306C108.011 27.306 108.423 27.4771 108.748 27.8192C109.075 28.1613 109.239 28.606 109.239 29.1534C109.239 29.7276 109.062 30.1809 108.707 30.5133C108.353 30.8456 107.95 31.0118 107.498 31.0118C107.029 31.0118 106.613 30.8309 106.252 30.4693V31.8805H106.941V32.4999H104.906V31.8805H105.555ZM106.241 29.1864C106.241 29.3819 106.281 29.5688 106.362 29.7472C106.442 29.9256 106.57 30.0759 106.746 30.198C106.922 30.3178 107.129 30.3776 107.366 30.3776C107.698 30.3776 107.972 30.2665 108.187 30.0441C108.404 29.8217 108.513 29.5163 108.513 29.1277C108.513 28.749 108.4 28.4533 108.172 28.2407C107.947 28.0281 107.691 27.9218 107.403 27.9218C107.095 27.9218 106.823 28.0379 106.589 28.27C106.357 28.4997 106.241 28.8052 106.241 29.1864Z" fill="white"/>
<path d="M114.637 30.2897V30.9091H113.42V30.4766C113.083 30.804 112.706 30.9678 112.291 30.9678C111.968 30.9678 111.687 30.8627 111.448 30.6525C111.211 30.4424 111.092 30.1736 111.092 29.8462C111.092 29.5163 111.218 29.2426 111.47 29.0251C111.724 28.8076 112.03 28.6989 112.386 28.6989C112.719 28.6989 113.04 28.7991 113.35 28.9994V28.6476C113.35 28.4667 113.333 28.3275 113.299 28.2297C113.265 28.132 113.184 28.044 113.057 27.9658C112.932 27.8876 112.769 27.8485 112.566 27.8485C112.216 27.8485 111.964 27.9878 111.807 28.2664L111.14 28.0904C111.436 27.5382 111.946 27.262 112.672 27.262C112.939 27.262 113.168 27.2987 113.361 27.372C113.557 27.4429 113.702 27.5357 113.797 27.6506C113.893 27.763 113.956 27.8852 113.988 28.0171C114.022 28.1491 114.039 28.3592 114.039 28.6476V30.2897H114.637ZM113.35 29.5896C113.05 29.355 112.746 29.2377 112.438 29.2377C112.245 29.2377 112.083 29.2939 111.954 29.4063C111.824 29.5187 111.76 29.6641 111.76 29.8425C111.76 30.0087 111.816 30.1479 111.928 30.2603C112.043 30.3728 112.198 30.429 112.394 30.429C112.731 30.429 113.05 30.2872 113.35 30.0038V29.5896Z" fill="white"/>
<path d="M119.566 27.361V28.7025H118.943C118.911 28.446 118.806 28.2493 118.627 28.1124C118.451 27.9756 118.246 27.9072 118.012 27.9072C117.699 27.9072 117.445 28.0183 117.249 28.2407C117.054 28.4606 116.956 28.7502 116.956 29.1094C116.956 29.4442 117.049 29.7399 117.234 29.9964C117.42 30.2506 117.689 30.3776 118.041 30.3776C118.53 30.3776 118.884 30.1455 119.104 29.6812L119.679 29.9525C119.362 30.6587 118.806 31.0118 118.012 31.0118C117.45 31.0118 117.007 30.8199 116.685 30.4363C116.362 30.0526 116.201 29.6103 116.201 29.1094C116.201 28.5743 116.377 28.1332 116.729 27.7862C117.081 27.4368 117.486 27.262 117.946 27.262C118.339 27.262 118.671 27.3781 118.943 27.6103V27.361H119.566Z" fill="white"/>
<path d="M121.28 27.9805V27.361H121.742V26.8149L122.438 26.1771V27.361H123.094V27.9805H122.438V29.7032C122.438 29.9793 122.453 30.1504 122.482 30.2164C122.514 30.2799 122.591 30.3117 122.713 30.3117C122.843 30.3117 122.97 30.2872 123.094 30.2384V30.8725C122.916 30.936 122.738 30.9678 122.559 30.9678C122.347 30.9678 122.174 30.9213 122.042 30.8285C121.91 30.7332 121.827 30.6147 121.793 30.4729C121.759 30.3312 121.742 30.0868 121.742 29.7399V27.9805H121.28Z" fill="white"/>
</svg>
