<svg width="32" height="32" viewBox="0 0 32 32" fill="none" xmlns="http://www.w3.org/2000/svg">
<path d="M28.3346 7.69268V11.9993C28.3346 14.8188 27.391 15.8647 24.8423 16.0084C24.4747 16.0291 24.1746 15.7275 24.1746 15.3594V13.8393C24.1746 9.67935 22.3213 7.82602 18.1613 7.82602H16.6413C16.2731 7.82602 15.9715 7.52594 15.9922 7.15834C16.1359 4.60966 17.1818 3.66602 20.0013 3.66602H24.3079C27.3613 3.66602 28.3346 4.63935 28.3346 7.69268Z" fill="url(#paint0_linear_2004_759)"/>
<path d="M22.1728 13.8395V18.1595C22.1728 21.1995 21.1995 22.1728 18.1595 22.1728H13.8395C10.7995 22.1728 9.82617 21.1995 9.82617 18.1595V13.8395C9.82617 10.7995 10.7995 9.82617 13.8395 9.82617H18.1595C21.1995 9.82617 22.1728 10.7995 22.1728 13.8395Z" fill="url(#paint1_linear_2004_759)"/>
<path d="M15.3594 24.1746C15.7275 24.1746 16.0291 24.4747 16.0084 24.8423C15.8647 27.391 14.8188 28.3346 11.9993 28.3346H7.69268C4.63935 28.3346 3.66602 27.3613 3.66602 24.3079V20.0013C3.66602 17.1818 4.60966 16.1359 7.15834 15.9922C7.52594 15.9715 7.82602 16.2731 7.82602 16.6413V18.1613C7.82602 22.3213 9.67935 24.1746 13.8393 24.1746H15.3594Z" fill="url(#paint2_linear_2004_759)"/>
<defs>
<linearGradient id="paint0_linear_2004_759" x1="16.2482" y1="4.74671" x2="28.5757" y2="6.09817" gradientUnits="userSpaceOnUse">
<stop stop-color="#E9480E"/>
<stop offset="1" stop-color="#E9480E" stop-opacity="0"/>
</linearGradient>
<linearGradient id="paint1_linear_2004_759" x1="10.0995" y1="10.9057" x2="22.4136" y2="12.2557" gradientUnits="userSpaceOnUse">
<stop stop-color="#E9480E"/>
<stop offset="1" stop-color="#E9480E" stop-opacity="0"/>
</linearGradient>
<linearGradient id="paint2_linear_2004_759" x1="3.93965" y1="17.0553" x2="16.2671" y2="18.4068" gradientUnits="userSpaceOnUse">
<stop stop-color="#E9480E"/>
<stop offset="1" stop-color="#E9480E" stop-opacity="0"/>
</linearGradient>
</defs>
</svg>
