<svg width="32" height="32" viewBox="0 0 32 32" fill="none" xmlns="http://www.w3.org/2000/svg">
<path d="M20.0009 30.333C19.6409 30.333 19.3076 30.133 19.1342 29.8263C18.9609 29.5063 18.9609 29.133 19.1476 28.813L20.5476 26.4797C20.8276 25.9997 21.4542 25.853 21.9209 26.133C22.4009 26.413 22.5476 27.0263 22.2676 27.5063L21.9076 28.1063C25.5876 27.2397 28.3476 23.933 28.3476 19.9863C28.3476 19.4397 28.8009 18.9863 29.3476 18.9863C29.8942 18.9863 30.3476 19.4397 30.3476 19.9863C30.3342 25.693 25.6942 30.333 20.0009 30.333Z" fill="url(#paint0_linear_2004_767)"/>
<path d="M2.66602 12.9993C2.11935 12.9993 1.66602 12.546 1.66602 11.9993C1.66602 6.30602 6.30602 1.66602 11.9993 1.66602C12.3593 1.66602 12.6927 1.86602 12.866 2.17268C13.0393 2.49268 13.0393 2.86602 12.8527 3.18602L11.4527 5.51935C11.1727 5.98602 10.5593 6.14602 10.0793 5.85268C9.61268 5.57268 9.45268 4.95935 9.74602 4.47935L10.106 3.87935C6.41268 4.74602 3.66602 8.05268 3.66602 11.9993C3.66602 12.546 3.21268 12.9993 2.66602 12.9993Z" fill="url(#paint1_linear_2004_767)"/>
<path d="M19.7327 16.839V20.759C19.7327 24.0256 18.426 25.3323 15.1593 25.3323H11.2393C7.97268 25.3323 6.66602 24.0256 6.66602 20.759V16.839C6.66602 13.5723 7.97268 12.2656 11.2393 12.2656H15.1593C18.426 12.2656 19.7327 13.5723 19.7327 16.839Z" fill="url(#paint2_linear_2004_767)"/>
<path d="M20.7612 6.66602H16.8413C13.6279 6.66602 12.3212 7.94602 12.2812 11.0927H15.1612C19.0813 11.0927 20.8946 12.9193 20.8946 16.826V19.706C24.0546 19.666 25.3212 18.3593 25.3212 15.146V11.2393C25.3346 7.97268 24.0279 6.66602 20.7612 6.66602Z" fill="url(#paint3_linear_2004_767)"/>
<defs>
<linearGradient id="paint0_linear_2004_767" x1="19.2569" y1="19.9784" x2="30.5689" y2="21.218" gradientUnits="userSpaceOnUse">
<stop stop-color="#E9480E"/>
<stop offset="1" stop-color="#E9480E" stop-opacity="0"/>
</linearGradient>
<linearGradient id="paint1_linear_2004_767" x1="1.91681" y1="2.65694" x2="13.2154" y2="3.89507" gradientUnits="userSpaceOnUse">
<stop stop-color="#E9480E"/>
<stop offset="1" stop-color="#E9480E" stop-opacity="0"/>
</linearGradient>
<linearGradient id="paint2_linear_2004_767" x1="6.95529" y1="13.4081" x2="19.9875" y2="14.8368" gradientUnits="userSpaceOnUse">
<stop stop-color="#E9480E"/>
<stop offset="1" stop-color="#E9480E" stop-opacity="0"/>
</linearGradient>
<linearGradient id="paint3_linear_2004_767" x1="12.5699" y1="7.80617" x2="25.5757" y2="9.232" gradientUnits="userSpaceOnUse">
<stop stop-color="#E9480E"/>
<stop offset="1" stop-color="#E9480E" stop-opacity="0"/>
</linearGradient>
</defs>
</svg>
