<svg width="32" height="32" viewBox="0 0 32 32" fill="none" xmlns="http://www.w3.org/2000/svg">
<path d="M14.6676 2.6543C8.04096 2.6543 2.6543 8.04096 2.6543 14.6676C2.6543 21.2943 8.04096 26.681 14.6676 26.681C21.2943 26.681 26.681 21.2943 26.681 14.6676C26.681 8.04096 21.2943 2.6543 14.6676 2.6543ZM14.6676 17.6676H10.6676C10.121 17.6676 9.66763 17.2143 9.66763 16.6676C9.66763 16.121 10.121 15.6676 10.6676 15.6676H14.6676C15.2143 15.6676 15.6676 16.121 15.6676 16.6676C15.6676 17.2143 15.2143 17.6676 14.6676 17.6676ZM18.6676 13.6676H10.6676C10.121 13.6676 9.66763 13.2143 9.66763 12.6676C9.66763 12.121 10.121 11.6676 10.6676 11.6676H18.6676C19.2143 11.6676 19.6676 12.121 19.6676 12.6676C19.6676 13.2143 19.2143 13.6676 18.6676 13.6676Z" fill="url(#paint0_linear_2004_716)"/>
<path d="M29.3207 25.2667C28.8807 24.4533 27.9474 24 26.6941 24C25.7474 24 24.9341 24.3867 24.4541 25.0533C23.9741 25.72 23.8674 26.6133 24.1607 27.5067C24.7341 29.24 25.7341 29.6267 26.2807 29.6933C26.3607 29.7067 26.4407 29.7067 26.5341 29.7067C27.1207 29.7067 28.0274 29.4533 28.9074 28.1333C29.6141 27.1067 29.7474 26.08 29.3207 25.2667Z" fill="url(#paint1_linear_2004_716)"/>
<defs>
<linearGradient id="paint0_linear_2004_716" x1="3.18621" y1="4.75506" x2="27.1495" y2="7.38217" gradientUnits="userSpaceOnUse">
<stop stop-color="#E9480E"/>
<stop offset="1" stop-color="#E9480E" stop-opacity="0"/>
</linearGradient>
<linearGradient id="paint1_linear_2004_716" x1="24.1213" y1="24.499" x2="29.6756" y2="25.0928" gradientUnits="userSpaceOnUse">
<stop stop-color="#E9480E"/>
<stop offset="1" stop-color="#E9480E" stop-opacity="0"/>
</linearGradient>
</defs>
</svg>
