<svg width="32" height="32" viewBox="0 0 32 32" fill="none" xmlns="http://www.w3.org/2000/svg">
<path d="M17.9065 19.9999H5.86646C3.4398 19.9999 1.89313 17.3999 3.06646 15.2666L6.17313 9.61325L9.0798 4.31992C10.2931 2.11992 13.4665 2.11992 14.6798 4.31992L17.5998 9.61325L18.9998 12.1599L20.7065 15.2666C21.8798 17.3999 20.3331 19.9999 17.9065 19.9999Z" fill="url(#paint0_linear_2004_776)"/>
<path d="M30.2003 21.3339C30.2003 26.1206 26.3203 30.0006 21.5337 30.0006C17.467 30.0006 14.067 27.2139 13.1203 23.4273C13.027 23.0273 13.3337 22.6673 13.747 22.6673H18.7737C20.627 22.6673 22.307 21.7073 23.2537 20.1206C24.187 18.5206 24.227 16.6006 23.3203 14.9739L22.6537 13.7473C22.4003 13.2939 22.7603 12.7473 23.267 12.8406C27.2137 13.6406 30.2003 17.1339 30.2003 21.3339Z" fill="url(#paint1_linear_2004_776)"/>
<defs>
<linearGradient id="paint0_linear_2004_776" x1="3.07427" y1="4.18517" x2="21.4377" y2="6.32741" gradientUnits="userSpaceOnUse">
<stop stop-color="#E9480E"/>
<stop offset="1" stop-color="#E9480E" stop-opacity="0"/>
</linearGradient>
<linearGradient id="paint1_linear_2004_776" x1="13.482" y1="14.3314" x2="30.5355" y2="16.1929" gradientUnits="userSpaceOnUse">
<stop stop-color="#E9480E"/>
<stop offset="1" stop-color="#E9480E" stop-opacity="0"/>
</linearGradient>
</defs>
</svg>
