<svg width="32" height="32" viewBox="0 0 32 32" fill="none" xmlns="http://www.w3.org/2000/svg">
<path d="M23.2676 23.0659C21.0276 23.0659 18.961 22.0126 17.6143 20.1592C17.2943 19.7192 17.3876 19.0926 17.8276 18.7592C18.2676 18.4259 18.8943 18.5326 19.2276 18.9726C20.201 20.2926 21.6676 21.0526 23.2676 21.0526C26.0543 21.0526 28.3343 18.7859 28.3343 15.9859C28.3343 13.1859 26.0676 10.9192 23.2676 10.9192C21.3743 10.9192 19.5876 11.9326 18.6143 13.5459L15.081 19.4259C13.7476 21.6526 11.3076 23.0259 8.72096 23.0259C4.82763 23.0259 1.6543 19.8526 1.6543 15.9592C1.6543 12.0659 4.82763 8.89258 8.72096 8.89258C10.961 8.89258 13.0276 9.94591 14.3743 11.7992C14.6943 12.2392 14.601 12.8659 14.161 13.1992C13.7076 13.5326 13.0943 13.4259 12.761 12.9859C11.801 11.6926 10.3343 10.9326 8.7343 10.9326C5.94763 10.9326 3.66763 13.1992 3.66763 15.9992C3.66763 18.7992 5.9343 21.0659 8.7343 21.0659C10.6276 21.0659 12.4143 20.0526 13.3876 18.4392L16.921 12.5592C18.2543 10.3326 20.6943 8.95924 23.281 8.95924C27.1743 8.95924 30.3476 12.1326 30.3476 16.0259C30.3476 19.9192 27.161 23.0659 23.2676 23.0659Z" fill="url(#paint0_linear_2005_667)"/>
<path d="M8.66667 18.6673C10.1394 18.6673 11.3333 17.4734 11.3333 16.0007C11.3333 14.5279 10.1394 13.334 8.66667 13.334C7.19391 13.334 6 14.5279 6 16.0007C6 17.4734 7.19391 18.6673 8.66667 18.6673Z" fill="url(#paint1_linear_2005_667)"/>
<path d="M23.3327 18.6673C24.8054 18.6673 25.9993 17.4734 25.9993 16.0007C25.9993 14.5279 24.8054 13.334 23.3327 13.334C21.8599 13.334 20.666 14.5279 20.666 16.0007C20.666 17.4734 21.8599 18.6673 23.3327 18.6673Z" fill="url(#paint2_linear_2005_667)"/>
<defs>
<linearGradient id="paint0_linear_2005_667" x1="2.28952" y1="10.1318" x2="29.8915" y2="16.2579" gradientUnits="userSpaceOnUse">
<stop stop-color="#E9480E"/>
<stop offset="1" stop-color="#E9480E" stop-opacity="0"/>
</linearGradient>
<linearGradient id="paint1_linear_2005_667" x1="6.11807" y1="13.8003" x2="11.4373" y2="14.3835" gradientUnits="userSpaceOnUse">
<stop stop-color="#E9480E"/>
<stop offset="1" stop-color="#E9480E" stop-opacity="0"/>
</linearGradient>
<linearGradient id="paint2_linear_2005_667" x1="20.7841" y1="13.8003" x2="26.1034" y2="14.3835" gradientUnits="userSpaceOnUse">
<stop stop-color="#E9480E"/>
<stop offset="1" stop-color="#E9480E" stop-opacity="0"/>
</linearGradient>
</defs>
</svg>
